<svg width="2085" height="61" viewBox="0 0 2085 61" fill="none" xmlns="http://www.w3.org/2000/svg">
<path d="M24.6567 39L20.4084 21.24H24.0804L26.9366 33.768L30.2724 21.24H33.5364L36.8486 33.768L39.7044 21.24H43.3764L39.1287 39H35.5047L31.9045 26.472L28.2807 39H24.6567ZM49.0364 39.12C48.6524 39.12 48.2124 39.08 47.7164 39C47.2204 38.936 46.7404 38.776 46.2764 38.52C45.8284 38.264 45.4524 37.88 45.1484 37.368C44.8604 36.84 44.7163 36.12 44.7163 35.208L44.7161 25.296C44.7161 24.512 44.8361 23.856 45.0761 23.328C45.3161 22.8 45.6361 22.384 46.0361 22.08C46.4361 21.776 46.8761 21.56 47.3561 21.432C47.8361 21.304 48.3081 21.24 48.7721 21.24C49.9721 21.24 51.0281 21.256 51.9401 21.288C52.8681 21.32 53.7001 21.36 54.4361 21.408C55.1721 21.44 55.8441 21.488 56.4521 21.552L56.4521 24.528H49.8281C49.3321 24.528 48.9481 24.648 48.6761 24.888C48.4041 25.128 48.2682 25.496 48.2682 25.992L48.2682 28.56L55.3002 28.752L55.3003 31.56L48.2683 31.752L48.2683 34.2C48.2683 34.616 48.3323 34.944 48.4603 35.184C48.6043 35.408 48.7883 35.568 49.0123 35.664C49.2523 35.744 49.5003 35.784 49.7563 35.784H56.4523L56.4524 38.76C55.7484 38.84 54.9644 38.904 54.1004 38.952C53.2524 39 52.3884 39.04 51.5084 39.072C50.6444 39.104 49.8204 39.12 49.0364 39.12ZM65.2242 39L65.2239 21.24H72.2079C73.9679 21.24 75.2479 21.648 76.0479 22.464C76.8639 23.264 77.2719 24.408 77.272 25.896C77.272 26.6 77.168 27.224 76.96 27.768C76.768 28.296 76.488 28.736 76.12 29.088C75.752 29.424 75.312 29.656 74.8 29.784C75.184 29.88 75.552 30.032 75.9041 30.24C76.2721 30.448 76.6001 30.728 76.8881 31.08C77.1921 31.432 77.4241 31.864 77.5841 32.376C77.7601 32.872 77.8481 33.448 77.8481 34.104C77.8481 35.304 77.6402 36.264 77.2242 36.984C76.8242 37.704 76.2242 38.224 75.4242 38.544C74.6402 38.848 73.6722 39 72.5202 39H65.2242ZM68.7762 35.808H72.4242C72.8402 35.808 73.2002 35.728 73.5042 35.568C73.8081 35.408 74.0401 35.16 74.2001 34.824C74.3761 34.488 74.4641 34.04 74.4641 33.48C74.4641 33.016 74.3761 32.624 74.2001 32.304C74.0241 31.984 73.7841 31.736 73.4801 31.56C73.1761 31.384 72.8241 31.296 72.4241 31.296H68.7761L68.7762 35.808ZM68.776 28.56H72.232C72.744 28.56 73.144 28.376 73.432 28.008C73.736 27.624 73.888 27.128 73.888 26.52C73.904 25.736 73.744 25.192 73.408 24.888C73.0719 24.584 72.6639 24.432 72.1839 24.432H68.7759L68.776 28.56ZM86.9671 39.12C85.9911 39.12 85.0791 39.04 84.2311 38.88C83.3831 38.704 82.6391 38.408 81.9991 37.992C81.3751 37.56 80.8871 36.968 80.535 36.216C80.199 35.448 80.031 34.472 80.031 33.288L80.0308 21.24H83.5828L83.583 33.264C83.583 33.92 83.711 34.44 83.967 34.824C84.239 35.208 84.623 35.488 85.119 35.664C85.631 35.84 86.247 35.928 86.967 35.928C87.671 35.928 88.271 35.84 88.767 35.664C89.279 35.488 89.663 35.208 89.919 34.824C90.191 34.44 90.327 33.92 90.327 33.264L90.3268 21.24H93.9028L93.903 33.288C93.903 34.472 93.727 35.448 93.375 36.216C93.0231 36.968 92.5351 37.56 91.9111 37.992C91.2871 38.408 90.5511 38.704 89.7031 38.88C88.8711 39.04 87.9591 39.12 86.9671 39.12ZM100.948 39L100.948 33.624L95.5959 21.24H99.2919L102.796 30L106.276 21.24H109.828L104.5 33.624L104.5 39H100.948ZM121.702 39L121.702 24.432H116.83L116.83 21.24H130.15L130.15 24.432H125.254L125.254 39H121.702ZM132.068 39L132.068 21.24H139.412C140.116 21.24 140.772 21.328 141.38 21.504C141.988 21.664 142.524 21.952 142.988 22.368C143.452 22.784 143.812 23.36 144.068 24.096C144.34 24.832 144.476 25.776 144.476 26.928C144.476 27.744 144.396 28.44 144.236 29.016C144.076 29.592 143.86 30.064 143.588 30.432C143.332 30.8 143.036 31.096 142.7 31.32C142.364 31.544 142.02 31.728 141.668 31.872L144.98 39H141.356L138.5 32.424C138.308 32.424 138.084 32.424 137.828 32.424C137.588 32.408 137.34 32.4 137.084 32.4C136.828 32.4 136.572 32.4 136.316 32.4C136.06 32.4 135.828 32.392 135.62 32.376L135.62 39H132.068ZM135.62 29.568H138.788C139.108 29.568 139.396 29.528 139.652 29.448C139.908 29.368 140.132 29.232 140.324 29.04C140.516 28.832 140.66 28.56 140.756 28.224C140.868 27.888 140.924 27.456 140.924 26.928C140.924 26.432 140.868 26.024 140.756 25.704C140.66 25.368 140.516 25.112 140.324 24.936C140.132 24.744 139.908 24.616 139.652 24.552C139.396 24.472 139.108 24.432 138.788 24.432H135.62L135.62 29.568ZM145.987 39L151.555 21.24H156.043L161.611 39H157.915L156.787 35.28H150.739L149.635 39H145.987ZM151.579 32.088H155.947L153.763 24.288L151.579 32.088ZM163.076 39L163.076 25.296C163.076 24.512 163.195 23.856 163.435 23.328C163.675 22.8 163.995 22.384 164.395 22.08C164.795 21.776 165.235 21.56 165.715 21.432C166.195 21.304 166.667 21.24 167.131 21.24C167.707 21.24 168.419 21.248 169.267 21.264C170.131 21.264 171.043 21.288 172.003 21.336C172.979 21.384 173.915 21.456 174.811 21.552L174.812 24.528H168.116C167.62 24.528 167.244 24.664 166.988 24.936C166.748 25.192 166.628 25.536 166.628 25.968L166.628 28.992L173.66 29.184L173.66 31.992L166.628 32.184L166.628 39H163.076ZM176.834 39L176.833 25.296C176.833 24.512 176.953 23.856 177.193 23.328C177.433 22.8 177.753 22.384 178.153 22.08C178.553 21.776 178.993 21.56 179.473 21.432C179.953 21.304 180.425 21.24 180.889 21.24C181.465 21.24 182.177 21.248 183.025 21.264C183.889 21.264 184.801 21.288 185.761 21.336C186.737 21.384 187.673 21.456 188.569 21.552L188.569 24.528H181.873C181.377 24.528 181.001 24.664 180.745 24.936C180.505 25.192 180.385 25.536 180.385 25.968L180.385 28.992L187.417 29.184L187.417 31.992L180.385 32.184L180.386 39H176.834ZM190.826 39L190.825 21.24H194.377L194.378 39H190.826ZM203.435 39.144C202.395 39.144 201.475 39.024 200.675 38.784C199.891 38.544 199.219 38.104 198.659 37.464C198.115 36.824 197.699 35.912 197.411 34.728C197.138 33.528 197.002 31.976 197.002 30.072C197.002 28.232 197.146 26.728 197.434 25.56C197.738 24.376 198.17 23.464 198.73 22.824C199.29 22.168 199.97 21.712 200.77 21.456C201.57 21.2 202.474 21.072 203.482 21.072C204.282 21.072 205.026 21.12 205.714 21.216C206.418 21.296 207.05 21.4 207.61 21.528C208.17 21.64 208.642 21.768 209.026 21.912L209.026 24.672C208.738 24.608 208.346 24.544 207.85 24.48C207.37 24.416 206.818 24.368 206.194 24.336C205.57 24.288 204.914 24.264 204.226 24.264C203.554 24.264 202.978 24.344 202.498 24.504C202.034 24.648 201.658 24.928 201.37 25.344C201.098 25.744 200.89 26.328 200.746 27.096C200.618 27.864 200.554 28.864 200.554 30.096C200.554 31.28 200.61 32.256 200.722 33.024C200.85 33.792 201.051 34.392 201.323 34.824C201.595 35.24 201.963 35.536 202.427 35.712C202.907 35.872 203.507 35.952 204.227 35.952C205.443 35.952 206.427 35.928 207.179 35.88C207.947 35.832 208.563 35.776 209.027 35.712L209.027 38.448C208.595 38.592 208.099 38.72 207.539 38.832C206.979 38.928 206.363 39 205.691 39.048C205.019 39.112 204.267 39.144 203.435 39.144Z" fill="white"/>
<mask id="path-2-outside-1_1_4" maskUnits="userSpaceOnUse" x="248" y="18.464" width="193" height="23" fill="black">
<rect fill="white" x="248" y="18.464" width="193" height="23"/>
<path d="M254.249 39.392L250 21.632H253.672L256.529 34.16L259.864 21.632H263.128L266.441 34.16L269.296 21.632H272.968L268.721 39.392H265.097L261.496 26.864L257.873 39.392H254.249Z"/>
<path d="M278.628 39.512C278.244 39.512 277.804 39.472 277.308 39.392C276.812 39.328 276.332 39.168 275.868 38.912C275.42 38.656 275.044 38.272 274.74 37.76C274.452 37.232 274.308 36.512 274.308 35.6L274.308 25.688C274.308 24.904 274.428 24.248 274.668 23.72C274.908 23.192 275.228 22.776 275.628 22.472C276.028 22.168 276.468 21.952 276.948 21.824C277.428 21.696 277.9 21.632 278.364 21.632C279.564 21.632 280.62 21.648 281.532 21.68C282.46 21.712 283.292 21.752 284.028 21.8C284.764 21.832 285.436 21.88 286.044 21.944L286.044 24.92H279.42C278.924 24.92 278.54 25.04 278.268 25.28C277.996 25.52 277.86 25.888 277.86 26.384L277.86 28.952L284.892 29.144L284.892 31.952L277.86 32.144L277.86 34.592C277.86 35.008 277.924 35.336 278.052 35.576C278.196 35.8 278.38 35.96 278.604 36.056C278.844 36.136 279.092 36.176 279.348 36.176H286.044L286.044 39.152C285.34 39.232 284.556 39.296 283.692 39.344C282.844 39.392 281.98 39.432 281.1 39.464C280.236 39.496 279.412 39.512 278.628 39.512Z"/>
<path d="M294.816 39.392L294.816 21.632H301.8C303.56 21.632 304.84 22.04 305.64 22.856C306.456 23.656 306.864 24.8 306.864 26.288C306.864 26.992 306.76 27.616 306.552 28.16C306.36 28.688 306.08 29.128 305.712 29.48C305.344 29.816 304.904 30.048 304.392 30.176C304.776 30.272 305.144 30.424 305.496 30.632C305.864 30.84 306.192 31.12 306.48 31.472C306.784 31.824 307.016 32.256 307.176 32.768C307.352 33.264 307.44 33.84 307.44 34.496C307.44 35.696 307.232 36.656 306.816 37.376C306.416 38.096 305.816 38.616 305.016 38.936C304.232 39.24 303.264 39.392 302.112 39.392H294.816ZM298.368 36.2H302.016C302.432 36.2 302.792 36.12 303.096 35.96C303.4 35.8 303.632 35.552 303.792 35.216C303.968 34.88 304.056 34.432 304.056 33.872C304.056 33.408 303.968 33.016 303.792 32.696C303.616 32.376 303.376 32.128 303.072 31.952C302.768 31.776 302.416 31.688 302.016 31.688H298.368L298.368 36.2ZM298.368 28.952H301.824C302.336 28.952 302.736 28.768 303.024 28.4C303.328 28.016 303.48 27.52 303.48 26.912C303.496 26.128 303.336 25.584 303 25.28C302.664 24.976 302.256 24.824 301.776 24.824H298.368L298.368 28.952Z"/>
<path d="M316.559 39.512C315.583 39.512 314.671 39.432 313.823 39.272C312.975 39.096 312.231 38.8 311.591 38.384C310.967 37.952 310.479 37.36 310.127 36.608C309.791 35.84 309.623 34.864 309.623 33.68L309.623 21.632H313.175L313.175 33.656C313.175 34.312 313.303 34.832 313.559 35.216C313.831 35.6 314.215 35.88 314.711 36.056C315.223 36.232 315.839 36.32 316.559 36.32C317.263 36.32 317.863 36.232 318.359 36.056C318.871 35.88 319.255 35.6 319.511 35.216C319.783 34.832 319.919 34.312 319.919 33.656L319.919 21.632H323.495L323.495 33.68C323.495 34.864 323.319 35.84 322.967 36.608C322.615 37.36 322.127 37.952 321.503 38.384C320.879 38.8 320.143 39.096 319.295 39.272C318.463 39.432 317.551 39.512 316.559 39.512Z"/>
<path d="M330.54 39.392L330.54 34.016L325.188 21.632H328.884L332.388 30.392L335.868 21.632H339.42L334.092 34.016L334.092 39.392H330.54Z"/>
<path d="M351.294 39.392L351.294 24.824H346.422L346.422 21.632H359.742L359.742 24.824H354.846L354.846 39.392H351.294Z"/>
<path d="M361.66 39.392L361.66 21.632H369.004C369.708 21.632 370.364 21.72 370.972 21.896C371.58 22.056 372.116 22.344 372.58 22.76C373.044 23.176 373.404 23.752 373.66 24.488C373.932 25.224 374.068 26.168 374.068 27.32C374.068 28.136 373.988 28.832 373.828 29.408C373.668 29.984 373.452 30.456 373.18 30.824C372.924 31.192 372.628 31.488 372.292 31.712C371.956 31.936 371.612 32.12 371.26 32.264L374.572 39.392H370.948L368.092 32.816C367.9 32.816 367.676 32.816 367.42 32.816C367.18 32.8 366.932 32.792 366.676 32.792C366.42 32.792 366.164 32.792 365.908 32.792C365.652 32.792 365.42 32.784 365.212 32.768L365.212 39.392H361.66ZM365.212 29.96H368.38C368.7 29.96 368.988 29.92 369.244 29.84C369.5 29.76 369.724 29.624 369.916 29.432C370.108 29.224 370.252 28.952 370.348 28.616C370.46 28.28 370.516 27.848 370.516 27.32C370.516 26.824 370.46 26.416 370.348 26.096C370.252 25.76 370.108 25.504 369.916 25.328C369.724 25.136 369.5 25.008 369.244 24.944C368.988 24.864 368.7 24.824 368.38 24.824H365.212L365.212 29.96Z"/>
<path d="M375.579 39.392L381.147 21.632H385.635L391.203 39.392H387.507L386.379 35.672H380.331L379.227 39.392H375.579ZM381.171 32.48H385.539L383.355 24.68L381.171 32.48Z"/>
<path d="M392.668 39.392L392.668 25.688C392.668 24.904 392.787 24.248 393.027 23.72C393.267 23.192 393.587 22.776 393.987 22.472C394.387 22.168 394.827 21.952 395.307 21.824C395.787 21.696 396.259 21.632 396.723 21.632C397.299 21.632 398.011 21.64 398.859 21.656C399.723 21.656 400.635 21.68 401.595 21.728C402.571 21.776 403.507 21.848 404.403 21.944L404.404 24.92H397.708C397.212 24.92 396.836 25.056 396.58 25.328C396.34 25.584 396.22 25.928 396.22 26.36L396.22 29.384L403.252 29.576L403.252 32.384L396.22 32.576L396.22 39.392H392.668Z"/>
<path d="M406.426 39.392L406.425 25.688C406.425 24.904 406.545 24.248 406.785 23.72C407.025 23.192 407.345 22.776 407.745 22.472C408.145 22.168 408.585 21.952 409.065 21.824C409.545 21.696 410.017 21.632 410.481 21.632C411.057 21.632 411.769 21.64 412.617 21.656C413.481 21.656 414.393 21.68 415.353 21.728C416.329 21.776 417.265 21.848 418.161 21.944L418.161 24.92H411.465C410.969 24.92 410.593 25.056 410.337 25.328C410.097 25.584 409.977 25.928 409.977 26.36L409.977 29.384L417.009 29.576L417.009 32.384L409.977 32.576L409.978 39.392H406.426Z"/>
<path d="M420.418 39.392L420.417 21.632H423.969L423.97 39.392H420.418Z"/>
<path d="M433.027 39.536C431.987 39.536 431.067 39.416 430.267 39.176C429.483 38.936 428.811 38.496 428.251 37.856C427.707 37.216 427.291 36.304 427.003 35.12C426.73 33.92 426.594 32.368 426.594 30.464C426.594 28.624 426.738 27.12 427.026 25.952C427.33 24.768 427.762 23.856 428.322 23.216C428.882 22.56 429.562 22.104 430.362 21.848C431.162 21.592 432.066 21.464 433.074 21.464C433.874 21.464 434.618 21.512 435.306 21.608C436.01 21.688 436.642 21.792 437.202 21.92C437.762 22.032 438.234 22.16 438.618 22.304L438.618 25.064C438.33 25 437.938 24.936 437.442 24.872C436.962 24.808 436.41 24.76 435.786 24.728C435.162 24.68 434.506 24.656 433.818 24.656C433.146 24.656 432.57 24.736 432.09 24.896C431.626 25.04 431.25 25.32 430.962 25.736C430.69 26.136 430.482 26.72 430.338 27.488C430.21 28.256 430.146 29.256 430.146 30.488C430.146 31.672 430.202 32.648 430.314 33.416C430.442 34.184 430.643 34.784 430.915 35.216C431.187 35.632 431.555 35.928 432.019 36.104C432.499 36.264 433.099 36.344 433.819 36.344C435.035 36.344 436.019 36.32 436.771 36.272C437.539 36.224 438.155 36.168 438.619 36.104L438.619 38.84C438.187 38.984 437.691 39.112 437.131 39.224C436.571 39.32 435.955 39.392 435.283 39.44C434.611 39.504 433.859 39.536 433.027 39.536Z"/>
</mask>
<path d="M254.249 39.392L250 21.632H253.672L256.529 34.16L259.864 21.632H263.128L266.441 34.16L269.296 21.632H272.968L268.721 39.392H265.097L261.496 26.864L257.873 39.392H254.249Z" stroke="white" stroke-width="3" mask="url(#path-2-outside-1_1_4)"/>
<path d="M278.628 39.512C278.244 39.512 277.804 39.472 277.308 39.392C276.812 39.328 276.332 39.168 275.868 38.912C275.42 38.656 275.044 38.272 274.74 37.76C274.452 37.232 274.308 36.512 274.308 35.6L274.308 25.688C274.308 24.904 274.428 24.248 274.668 23.72C274.908 23.192 275.228 22.776 275.628 22.472C276.028 22.168 276.468 21.952 276.948 21.824C277.428 21.696 277.9 21.632 278.364 21.632C279.564 21.632 280.62 21.648 281.532 21.68C282.46 21.712 283.292 21.752 284.028 21.8C284.764 21.832 285.436 21.88 286.044 21.944L286.044 24.92H279.42C278.924 24.92 278.54 25.04 278.268 25.28C277.996 25.52 277.86 25.888 277.86 26.384L277.86 28.952L284.892 29.144L284.892 31.952L277.86 32.144L277.86 34.592C277.86 35.008 277.924 35.336 278.052 35.576C278.196 35.8 278.38 35.96 278.604 36.056C278.844 36.136 279.092 36.176 279.348 36.176H286.044L286.044 39.152C285.34 39.232 284.556 39.296 283.692 39.344C282.844 39.392 281.98 39.432 281.1 39.464C280.236 39.496 279.412 39.512 278.628 39.512Z" stroke="white" stroke-width="3" mask="url(#path-2-outside-1_1_4)"/>
<path d="M294.816 39.392L294.816 21.632H301.8C303.56 21.632 304.84 22.04 305.64 22.856C306.456 23.656 306.864 24.8 306.864 26.288C306.864 26.992 306.76 27.616 306.552 28.16C306.36 28.688 306.08 29.128 305.712 29.48C305.344 29.816 304.904 30.048 304.392 30.176C304.776 30.272 305.144 30.424 305.496 30.632C305.864 30.84 306.192 31.12 306.48 31.472C306.784 31.824 307.016 32.256 307.176 32.768C307.352 33.264 307.44 33.84 307.44 34.496C307.44 35.696 307.232 36.656 306.816 37.376C306.416 38.096 305.816 38.616 305.016 38.936C304.232 39.24 303.264 39.392 302.112 39.392H294.816ZM298.368 36.2H302.016C302.432 36.2 302.792 36.12 303.096 35.96C303.4 35.8 303.632 35.552 303.792 35.216C303.968 34.88 304.056 34.432 304.056 33.872C304.056 33.408 303.968 33.016 303.792 32.696C303.616 32.376 303.376 32.128 303.072 31.952C302.768 31.776 302.416 31.688 302.016 31.688H298.368L298.368 36.2ZM298.368 28.952H301.824C302.336 28.952 302.736 28.768 303.024 28.4C303.328 28.016 303.48 27.52 303.48 26.912C303.496 26.128 303.336 25.584 303 25.28C302.664 24.976 302.256 24.824 301.776 24.824H298.368L298.368 28.952Z" stroke="white" stroke-width="3" mask="url(#path-2-outside-1_1_4)"/>
<path d="M316.559 39.512C315.583 39.512 314.671 39.432 313.823 39.272C312.975 39.096 312.231 38.8 311.591 38.384C310.967 37.952 310.479 37.36 310.127 36.608C309.791 35.84 309.623 34.864 309.623 33.68L309.623 21.632H313.175L313.175 33.656C313.175 34.312 313.303 34.832 313.559 35.216C313.831 35.6 314.215 35.88 314.711 36.056C315.223 36.232 315.839 36.32 316.559 36.32C317.263 36.32 317.863 36.232 318.359 36.056C318.871 35.88 319.255 35.6 319.511 35.216C319.783 34.832 319.919 34.312 319.919 33.656L319.919 21.632H323.495L323.495 33.68C323.495 34.864 323.319 35.84 322.967 36.608C322.615 37.36 322.127 37.952 321.503 38.384C320.879 38.8 320.143 39.096 319.295 39.272C318.463 39.432 317.551 39.512 316.559 39.512Z" stroke="white" stroke-width="3" mask="url(#path-2-outside-1_1_4)"/>
<path d="M330.54 39.392L330.54 34.016L325.188 21.632H328.884L332.388 30.392L335.868 21.632H339.42L334.092 34.016L334.092 39.392H330.54Z" stroke="white" stroke-width="3" mask="url(#path-2-outside-1_1_4)"/>
<path d="M351.294 39.392L351.294 24.824H346.422L346.422 21.632H359.742L359.742 24.824H354.846L354.846 39.392H351.294Z" stroke="white" stroke-width="3" mask="url(#path-2-outside-1_1_4)"/>
<path d="M361.66 39.392L361.66 21.632H369.004C369.708 21.632 370.364 21.72 370.972 21.896C371.58 22.056 372.116 22.344 372.58 22.76C373.044 23.176 373.404 23.752 373.66 24.488C373.932 25.224 374.068 26.168 374.068 27.32C374.068 28.136 373.988 28.832 373.828 29.408C373.668 29.984 373.452 30.456 373.18 30.824C372.924 31.192 372.628 31.488 372.292 31.712C371.956 31.936 371.612 32.12 371.26 32.264L374.572 39.392H370.948L368.092 32.816C367.9 32.816 367.676 32.816 367.42 32.816C367.18 32.8 366.932 32.792 366.676 32.792C366.42 32.792 366.164 32.792 365.908 32.792C365.652 32.792 365.42 32.784 365.212 32.768L365.212 39.392H361.66ZM365.212 29.96H368.38C368.7 29.96 368.988 29.92 369.244 29.84C369.5 29.76 369.724 29.624 369.916 29.432C370.108 29.224 370.252 28.952 370.348 28.616C370.46 28.28 370.516 27.848 370.516 27.32C370.516 26.824 370.46 26.416 370.348 26.096C370.252 25.76 370.108 25.504 369.916 25.328C369.724 25.136 369.5 25.008 369.244 24.944C368.988 24.864 368.7 24.824 368.38 24.824H365.212L365.212 29.96Z" stroke="white" stroke-width="3" mask="url(#path-2-outside-1_1_4)"/>
<path d="M375.579 39.392L381.147 21.632H385.635L391.203 39.392H387.507L386.379 35.672H380.331L379.227 39.392H375.579ZM381.171 32.48H385.539L383.355 24.68L381.171 32.48Z" stroke="white" stroke-width="3" mask="url(#path-2-outside-1_1_4)"/>
<path d="M392.668 39.392L392.668 25.688C392.668 24.904 392.787 24.248 393.027 23.72C393.267 23.192 393.587 22.776 393.987 22.472C394.387 22.168 394.827 21.952 395.307 21.824C395.787 21.696 396.259 21.632 396.723 21.632C397.299 21.632 398.011 21.64 398.859 21.656C399.723 21.656 400.635 21.68 401.595 21.728C402.571 21.776 403.507 21.848 404.403 21.944L404.404 24.92H397.708C397.212 24.92 396.836 25.056 396.58 25.328C396.34 25.584 396.22 25.928 396.22 26.36L396.22 29.384L403.252 29.576L403.252 32.384L396.22 32.576L396.22 39.392H392.668Z" stroke="white" stroke-width="3" mask="url(#path-2-outside-1_1_4)"/>
<path d="M406.426 39.392L406.425 25.688C406.425 24.904 406.545 24.248 406.785 23.72C407.025 23.192 407.345 22.776 407.745 22.472C408.145 22.168 408.585 21.952 409.065 21.824C409.545 21.696 410.017 21.632 410.481 21.632C411.057 21.632 411.769 21.64 412.617 21.656C413.481 21.656 414.393 21.68 415.353 21.728C416.329 21.776 417.265 21.848 418.161 21.944L418.161 24.92H411.465C410.969 24.92 410.593 25.056 410.337 25.328C410.097 25.584 409.977 25.928 409.977 26.36L409.977 29.384L417.009 29.576L417.009 32.384L409.977 32.576L409.978 39.392H406.426Z" stroke="white" stroke-width="3" mask="url(#path-2-outside-1_1_4)"/>
<path d="M420.418 39.392L420.417 21.632H423.969L423.97 39.392H420.418Z" stroke="white" stroke-width="3" mask="url(#path-2-outside-1_1_4)"/>
<path d="M433.027 39.536C431.987 39.536 431.067 39.416 430.267 39.176C429.483 38.936 428.811 38.496 428.251 37.856C427.707 37.216 427.291 36.304 427.003 35.12C426.73 33.92 426.594 32.368 426.594 30.464C426.594 28.624 426.738 27.12 427.026 25.952C427.33 24.768 427.762 23.856 428.322 23.216C428.882 22.56 429.562 22.104 430.362 21.848C431.162 21.592 432.066 21.464 433.074 21.464C433.874 21.464 434.618 21.512 435.306 21.608C436.01 21.688 436.642 21.792 437.202 21.92C437.762 22.032 438.234 22.16 438.618 22.304L438.618 25.064C438.33 25 437.938 24.936 437.442 24.872C436.962 24.808 436.41 24.76 435.786 24.728C435.162 24.68 434.506 24.656 433.818 24.656C433.146 24.656 432.57 24.736 432.09 24.896C431.626 25.04 431.25 25.32 430.962 25.736C430.69 26.136 430.482 26.72 430.338 27.488C430.21 28.256 430.146 29.256 430.146 30.488C430.146 31.672 430.202 32.648 430.314 33.416C430.442 34.184 430.643 34.784 430.915 35.216C431.187 35.632 431.555 35.928 432.019 36.104C432.499 36.264 433.099 36.344 433.819 36.344C435.035 36.344 436.019 36.32 436.771 36.272C437.539 36.224 438.155 36.168 438.619 36.104L438.619 38.84C438.187 38.984 437.691 39.112 437.131 39.224C436.571 39.32 435.955 39.392 435.283 39.44C434.611 39.504 433.859 39.536 433.027 39.536Z" stroke="white" stroke-width="3" mask="url(#path-2-outside-1_1_4)"/>
<path d="M483.275 39L479.026 21.24H482.698L485.554 33.768L488.89 21.24H492.154L495.466 33.768L498.322 21.24H501.994L497.747 39H494.123L490.522 26.472L486.899 39H483.275ZM507.654 39.12C507.27 39.12 506.83 39.08 506.334 39C505.838 38.936 505.358 38.776 504.894 38.52C504.446 38.264 504.07 37.88 503.766 37.368C503.478 36.84 503.334 36.12 503.334 35.208L503.334 25.296C503.334 24.512 503.454 23.856 503.694 23.328C503.934 22.8 504.254 22.384 504.654 22.08C505.054 21.776 505.494 21.56 505.974 21.432C506.454 21.304 506.926 21.24 507.39 21.24C508.59 21.24 509.646 21.256 510.558 21.288C511.486 21.32 512.318 21.36 513.054 21.408C513.79 21.44 514.462 21.488 515.07 21.552L515.07 24.528H508.446C507.95 24.528 507.566 24.648 507.294 24.888C507.022 25.128 506.886 25.496 506.886 25.992L506.886 28.56L513.918 28.752L513.918 31.56L506.886 31.752L506.886 34.2C506.886 34.616 506.95 34.944 507.078 35.184C507.222 35.408 507.406 35.568 507.63 35.664C507.87 35.744 508.118 35.784 508.374 35.784H515.07L515.07 38.76C514.366 38.84 513.582 38.904 512.718 38.952C511.87 39 511.006 39.04 510.126 39.072C509.262 39.104 508.438 39.12 507.654 39.12ZM523.842 39L523.842 21.24H530.826C532.586 21.24 533.866 21.648 534.666 22.464C535.482 23.264 535.89 24.408 535.89 25.896C535.89 26.6 535.786 27.224 535.578 27.768C535.386 28.296 535.106 28.736 534.738 29.088C534.37 29.424 533.93 29.656 533.418 29.784C533.802 29.88 534.17 30.032 534.522 30.24C534.89 30.448 535.218 30.728 535.506 31.08C535.81 31.432 536.042 31.864 536.202 32.376C536.378 32.872 536.466 33.448 536.466 34.104C536.466 35.304 536.258 36.264 535.842 36.984C535.442 37.704 534.842 38.224 534.042 38.544C533.258 38.848 532.29 39 531.138 39H523.842ZM527.394 35.808H531.042C531.458 35.808 531.818 35.728 532.122 35.568C532.426 35.408 532.658 35.16 532.818 34.824C532.994 34.488 533.082 34.04 533.082 33.48C533.082 33.016 532.994 32.624 532.818 32.304C532.642 31.984 532.402 31.736 532.098 31.56C531.794 31.384 531.442 31.296 531.042 31.296H527.394L527.394 35.808ZM527.394 28.56H530.85C531.362 28.56 531.762 28.376 532.05 28.008C532.354 27.624 532.506 27.128 532.506 26.52C532.522 25.736 532.362 25.192 532.026 24.888C531.69 24.584 531.282 24.432 530.802 24.432H527.394L527.394 28.56ZM545.585 39.12C544.609 39.12 543.697 39.04 542.849 38.88C542.001 38.704 541.257 38.408 540.617 37.992C539.993 37.56 539.505 36.968 539.153 36.216C538.817 35.448 538.649 34.472 538.649 33.288L538.649 21.24H542.201L542.201 33.264C542.201 33.92 542.329 34.44 542.585 34.824C542.857 35.208 543.241 35.488 543.737 35.664C544.249 35.84 544.865 35.928 545.585 35.928C546.289 35.928 546.889 35.84 547.385 35.664C547.897 35.488 548.281 35.208 548.537 34.824C548.809 34.44 548.945 33.92 548.945 33.264L548.945 21.24H552.521L552.521 33.288C552.521 34.472 552.345 35.448 551.993 36.216C551.641 36.968 551.153 37.56 550.529 37.992C549.905 38.408 549.169 38.704 548.321 38.88C547.489 39.04 546.577 39.12 545.585 39.12ZM559.566 39L559.566 33.624L554.214 21.24H557.91L561.414 30L564.894 21.24H568.446L563.118 33.624L563.118 39H559.566ZM580.32 39L580.32 24.432H575.448L575.448 21.24H588.768L588.768 24.432H583.872L583.872 39H580.32ZM590.686 39L590.685 21.24H598.029C598.733 21.24 599.389 21.328 599.998 21.504C600.606 21.664 601.142 21.952 601.606 22.368C602.07 22.784 602.43 23.36 602.686 24.096C602.958 24.832 603.094 25.776 603.094 26.928C603.094 27.744 603.014 28.44 602.854 29.016C602.694 29.592 602.478 30.064 602.206 30.432C601.95 30.8 601.654 31.096 601.318 31.32C600.982 31.544 600.638 31.728 600.286 31.872L603.598 39H599.974L597.118 32.424C596.926 32.424 596.702 32.424 596.446 32.424C596.206 32.408 595.958 32.4 595.702 32.4C595.446 32.4 595.19 32.4 594.934 32.4C594.678 32.4 594.446 32.392 594.238 32.376L594.238 39H590.686ZM594.238 29.568H597.406C597.726 29.568 598.014 29.528 598.27 29.448C598.526 29.368 598.75 29.232 598.942 29.04C599.134 28.832 599.278 28.56 599.374 28.224C599.486 27.888 599.542 27.456 599.542 26.928C599.542 26.432 599.486 26.024 599.374 25.704C599.278 25.368 599.134 25.112 598.942 24.936C598.75 24.744 598.526 24.616 598.27 24.552C598.014 24.472 597.726 24.432 597.406 24.432H594.238L594.238 29.568ZM604.605 39L610.172 21.24H614.66L620.229 39H616.533L615.405 35.28H609.357L608.253 39H604.605ZM610.197 32.088H614.565L612.38 24.288L610.197 32.088ZM621.694 39L621.693 25.296C621.693 24.512 621.813 23.856 622.053 23.328C622.293 22.8 622.613 22.384 623.013 22.08C623.413 21.776 623.853 21.56 624.333 21.432C624.813 21.304 625.285 21.24 625.749 21.24C626.325 21.24 627.037 21.248 627.885 21.264C628.749 21.264 629.661 21.288 630.621 21.336C631.597 21.384 632.533 21.456 633.429 21.552L633.429 24.528H626.733C626.237 24.528 625.861 24.664 625.605 24.936C625.365 25.192 625.245 25.536 625.245 25.968L625.245 28.992L632.277 29.184L632.278 31.992L625.246 32.184L625.246 39H621.694ZM635.451 39L635.451 25.296C635.451 24.512 635.571 23.856 635.811 23.328C636.051 22.8 636.371 22.384 636.771 22.08C637.171 21.776 637.611 21.56 638.091 21.432C638.571 21.304 639.043 21.24 639.507 21.24C640.083 21.24 640.795 21.248 641.643 21.264C642.507 21.264 643.419 21.288 644.379 21.336C645.355 21.384 646.291 21.456 647.187 21.552L647.187 24.528H640.491C639.995 24.528 639.619 24.664 639.363 24.936C639.123 25.192 639.003 25.536 639.003 25.968L639.003 28.992L646.035 29.184L646.035 31.992L639.003 32.184L639.003 39H635.451ZM649.444 39L649.443 21.24H652.995L652.996 39H649.444ZM662.052 39.144C661.012 39.144 660.092 39.024 659.292 38.784C658.508 38.544 657.836 38.104 657.276 37.464C656.732 36.824 656.316 35.912 656.028 34.728C655.756 33.528 655.62 31.976 655.62 30.072C655.62 28.232 655.764 26.728 656.052 25.56C656.356 24.376 656.788 23.464 657.348 22.824C657.908 22.168 658.588 21.712 659.388 21.456C660.188 21.2 661.092 21.072 662.1 21.072C662.9 21.072 663.644 21.12 664.332 21.216C665.036 21.296 665.668 21.4 666.228 21.528C666.788 21.64 667.26 21.768 667.644 21.912L667.644 24.672C667.356 24.608 666.964 24.544 666.468 24.48C665.988 24.416 665.436 24.368 664.812 24.336C664.188 24.288 663.532 24.264 662.844 24.264C662.172 24.264 661.596 24.344 661.116 24.504C660.652 24.648 660.276 24.928 659.988 25.344C659.716 25.744 659.508 26.328 659.364 27.096C659.236 27.864 659.172 28.864 659.172 30.096C659.172 31.28 659.228 32.256 659.34 33.024C659.468 33.792 659.668 34.392 659.94 34.824C660.212 35.24 660.58 35.536 661.044 35.712C661.524 35.872 662.124 35.952 662.844 35.952C664.06 35.952 665.044 35.928 665.796 35.88C666.564 35.832 667.18 35.776 667.644 35.712L667.644 38.448C667.212 38.592 666.716 38.72 666.156 38.832C665.596 38.928 664.98 39 664.308 39.048C663.636 39.112 662.884 39.144 662.052 39.144Z" fill="white"/>
<mask id="path-4-outside-2_1_4" maskUnits="userSpaceOnUse" x="706.618" y="18.464" width="193" height="23" fill="black">
<rect fill="white" x="706.618" y="18.464" width="193" height="23"/>
<path d="M712.867 39.392L708.618 21.632H712.29L715.146 34.16L718.482 21.632H721.746L725.058 34.16L727.914 21.632H731.586L727.339 39.392H723.715L720.114 26.864L716.491 39.392H712.867Z"/>
<path d="M737.246 39.512C736.862 39.512 736.422 39.472 735.926 39.392C735.43 39.328 734.95 39.168 734.486 38.912C734.038 38.656 733.662 38.272 733.358 37.76C733.07 37.232 732.926 36.512 732.926 35.6L732.926 25.688C732.926 24.904 733.046 24.248 733.286 23.72C733.526 23.192 733.846 22.776 734.246 22.472C734.646 22.168 735.086 21.952 735.566 21.824C736.046 21.696 736.518 21.632 736.982 21.632C738.182 21.632 739.238 21.648 740.15 21.68C741.078 21.712 741.91 21.752 742.646 21.8C743.382 21.832 744.054 21.88 744.662 21.944L744.662 24.92H738.038C737.542 24.92 737.158 25.04 736.886 25.28C736.614 25.52 736.478 25.888 736.478 26.384L736.478 28.952L743.51 29.144L743.51 31.952L736.478 32.144L736.478 34.592C736.478 35.008 736.542 35.336 736.67 35.576C736.814 35.8 736.998 35.96 737.222 36.056C737.462 36.136 737.71 36.176 737.966 36.176H744.662L744.662 39.152C743.958 39.232 743.174 39.296 742.31 39.344C741.462 39.392 740.598 39.432 739.718 39.464C738.854 39.496 738.03 39.512 737.246 39.512Z"/>
<path d="M753.434 39.392L753.434 21.632H760.418C762.178 21.632 763.458 22.04 764.258 22.856C765.074 23.656 765.482 24.8 765.482 26.288C765.482 26.992 765.378 27.616 765.17 28.16C764.978 28.688 764.698 29.128 764.33 29.48C763.962 29.816 763.522 30.048 763.01 30.176C763.394 30.272 763.762 30.424 764.114 30.632C764.482 30.84 764.81 31.12 765.098 31.472C765.402 31.824 765.634 32.256 765.794 32.768C765.97 33.264 766.058 33.84 766.058 34.496C766.058 35.696 765.85 36.656 765.434 37.376C765.034 38.096 764.434 38.616 763.634 38.936C762.85 39.24 761.882 39.392 760.73 39.392H753.434ZM756.986 36.2H760.634C761.05 36.2 761.41 36.12 761.714 35.96C762.018 35.8 762.25 35.552 762.41 35.216C762.586 34.88 762.674 34.432 762.674 33.872C762.674 33.408 762.586 33.016 762.41 32.696C762.234 32.376 761.994 32.128 761.69 31.952C761.386 31.776 761.034 31.688 760.634 31.688H756.986L756.986 36.2ZM756.986 28.952H760.442C760.954 28.952 761.354 28.768 761.642 28.4C761.946 28.016 762.098 27.52 762.098 26.912C762.114 26.128 761.954 25.584 761.618 25.28C761.282 24.976 760.874 24.824 760.394 24.824H756.986L756.986 28.952Z"/>
<path d="M775.177 39.512C774.201 39.512 773.289 39.432 772.441 39.272C771.593 39.096 770.849 38.8 770.209 38.384C769.585 37.952 769.097 37.36 768.745 36.608C768.409 35.84 768.241 34.864 768.241 33.68L768.241 21.632H771.793L771.793 33.656C771.793 34.312 771.921 34.832 772.177 35.216C772.449 35.6 772.833 35.88 773.329 36.056C773.841 36.232 774.457 36.32 775.177 36.32C775.881 36.32 776.481 36.232 776.977 36.056C777.489 35.88 777.873 35.6 778.129 35.216C778.401 34.832 778.537 34.312 778.537 33.656L778.537 21.632H782.113L782.113 33.68C782.113 34.864 781.937 35.84 781.585 36.608C781.233 37.36 780.745 37.952 780.121 38.384C779.497 38.8 778.761 39.096 777.913 39.272C777.081 39.432 776.169 39.512 775.177 39.512Z"/>
<path d="M789.158 39.392L789.158 34.016L783.806 21.632H787.502L791.006 30.392L794.486 21.632H798.038L792.71 34.016L792.71 39.392H789.158Z"/>
<path d="M809.912 39.392L809.912 24.824H805.04L805.04 21.632H818.36L818.36 24.824H813.464L813.464 39.392H809.912Z"/>
<path d="M820.278 39.392L820.278 21.632H827.622C828.326 21.632 828.982 21.72 829.59 21.896C830.198 22.056 830.734 22.344 831.198 22.76C831.662 23.176 832.022 23.752 832.278 24.488C832.55 25.224 832.686 26.168 832.686 27.32C832.686 28.136 832.606 28.832 832.446 29.408C832.286 29.984 832.07 30.456 831.798 30.824C831.542 31.192 831.246 31.488 830.91 31.712C830.574 31.936 830.23 32.12 829.878 32.264L833.19 39.392H829.566L826.71 32.816C826.518 32.816 826.294 32.816 826.038 32.816C825.798 32.8 825.55 32.792 825.294 32.792C825.038 32.792 824.782 32.792 824.526 32.792C824.27 32.792 824.038 32.784 823.83 32.768L823.83 39.392H820.278ZM823.83 29.96H826.998C827.318 29.96 827.606 29.92 827.862 29.84C828.118 29.76 828.342 29.624 828.534 29.432C828.726 29.224 828.87 28.952 828.966 28.616C829.078 28.28 829.134 27.848 829.134 27.32C829.134 26.824 829.078 26.416 828.966 26.096C828.87 25.76 828.726 25.504 828.534 25.328C828.342 25.136 828.118 25.008 827.862 24.944C827.606 24.864 827.318 24.824 826.998 24.824H823.83L823.83 29.96Z"/>
<path d="M834.197 39.392L839.764 21.632H844.252L849.821 39.392H846.125L844.997 35.672H838.949L837.845 39.392H834.197ZM839.789 32.48H844.157L841.972 24.68L839.789 32.48Z"/>
<path d="M851.286 39.392L851.285 25.688C851.285 24.904 851.405 24.248 851.645 23.72C851.885 23.192 852.205 22.776 852.605 22.472C853.005 22.168 853.445 21.952 853.925 21.824C854.405 21.696 854.877 21.632 855.341 21.632C855.917 21.632 856.629 21.64 857.477 21.656C858.341 21.656 859.253 21.68 860.213 21.728C861.189 21.776 862.125 21.848 863.021 21.944L863.021 24.92H856.325C855.829 24.92 855.453 25.056 855.197 25.328C854.957 25.584 854.837 25.928 854.837 26.36L854.837 29.384L861.869 29.576L861.87 32.384L854.838 32.576L854.838 39.392H851.286Z"/>
<path d="M865.043 39.392L865.043 25.688C865.043 24.904 865.163 24.248 865.403 23.72C865.643 23.192 865.963 22.776 866.363 22.472C866.763 22.168 867.203 21.952 867.683 21.824C868.163 21.696 868.635 21.632 869.099 21.632C869.675 21.632 870.387 21.64 871.235 21.656C872.099 21.656 873.011 21.68 873.971 21.728C874.947 21.776 875.883 21.848 876.779 21.944L876.779 24.92H870.083C869.587 24.92 869.211 25.056 868.955 25.328C868.715 25.584 868.595 25.928 868.595 26.36L868.595 29.384L875.627 29.576L875.627 32.384L868.595 32.576L868.595 39.392H865.043Z"/>
<path d="M879.036 39.392L879.035 21.632H882.587L882.588 39.392H879.036Z"/>
<path d="M891.644 39.536C890.604 39.536 889.684 39.416 888.884 39.176C888.1 38.936 887.428 38.496 886.868 37.856C886.324 37.216 885.908 36.304 885.62 35.12C885.348 33.92 885.212 32.368 885.212 30.464C885.212 28.624 885.356 27.12 885.644 25.952C885.948 24.768 886.38 23.856 886.94 23.216C887.5 22.56 888.18 22.104 888.98 21.848C889.78 21.592 890.684 21.464 891.692 21.464C892.492 21.464 893.236 21.512 893.924 21.608C894.628 21.688 895.26 21.792 895.82 21.92C896.38 22.032 896.852 22.16 897.236 22.304L897.236 25.064C896.948 25 896.556 24.936 896.06 24.872C895.58 24.808 895.028 24.76 894.404 24.728C893.78 24.68 893.124 24.656 892.436 24.656C891.764 24.656 891.188 24.736 890.708 24.896C890.244 25.04 889.868 25.32 889.58 25.736C889.308 26.136 889.1 26.72 888.956 27.488C888.828 28.256 888.764 29.256 888.764 30.488C888.764 31.672 888.82 32.648 888.932 33.416C889.06 34.184 889.26 34.784 889.532 35.216C889.804 35.632 890.172 35.928 890.636 36.104C891.116 36.264 891.716 36.344 892.436 36.344C893.652 36.344 894.636 36.32 895.388 36.272C896.156 36.224 896.772 36.168 897.236 36.104L897.236 38.84C896.804 38.984 896.308 39.112 895.748 39.224C895.188 39.32 894.572 39.392 893.9 39.44C893.228 39.504 892.476 39.536 891.644 39.536Z"/>
</mask>
<path d="M712.867 39.392L708.618 21.632H712.29L715.146 34.16L718.482 21.632H721.746L725.058 34.16L727.914 21.632H731.586L727.339 39.392H723.715L720.114 26.864L716.491 39.392H712.867Z" stroke="white" stroke-width="3" mask="url(#path-4-outside-2_1_4)"/>
<path d="M737.246 39.512C736.862 39.512 736.422 39.472 735.926 39.392C735.43 39.328 734.95 39.168 734.486 38.912C734.038 38.656 733.662 38.272 733.358 37.76C733.07 37.232 732.926 36.512 732.926 35.6L732.926 25.688C732.926 24.904 733.046 24.248 733.286 23.72C733.526 23.192 733.846 22.776 734.246 22.472C734.646 22.168 735.086 21.952 735.566 21.824C736.046 21.696 736.518 21.632 736.982 21.632C738.182 21.632 739.238 21.648 740.15 21.68C741.078 21.712 741.91 21.752 742.646 21.8C743.382 21.832 744.054 21.88 744.662 21.944L744.662 24.92H738.038C737.542 24.92 737.158 25.04 736.886 25.28C736.614 25.52 736.478 25.888 736.478 26.384L736.478 28.952L743.51 29.144L743.51 31.952L736.478 32.144L736.478 34.592C736.478 35.008 736.542 35.336 736.67 35.576C736.814 35.8 736.998 35.96 737.222 36.056C737.462 36.136 737.71 36.176 737.966 36.176H744.662L744.662 39.152C743.958 39.232 743.174 39.296 742.31 39.344C741.462 39.392 740.598 39.432 739.718 39.464C738.854 39.496 738.03 39.512 737.246 39.512Z" stroke="white" stroke-width="3" mask="url(#path-4-outside-2_1_4)"/>
<path d="M753.434 39.392L753.434 21.632H760.418C762.178 21.632 763.458 22.04 764.258 22.856C765.074 23.656 765.482 24.8 765.482 26.288C765.482 26.992 765.378 27.616 765.17 28.16C764.978 28.688 764.698 29.128 764.33 29.48C763.962 29.816 763.522 30.048 763.01 30.176C763.394 30.272 763.762 30.424 764.114 30.632C764.482 30.84 764.81 31.12 765.098 31.472C765.402 31.824 765.634 32.256 765.794 32.768C765.97 33.264 766.058 33.84 766.058 34.496C766.058 35.696 765.85 36.656 765.434 37.376C765.034 38.096 764.434 38.616 763.634 38.936C762.85 39.24 761.882 39.392 760.73 39.392H753.434ZM756.986 36.2H760.634C761.05 36.2 761.41 36.12 761.714 35.96C762.018 35.8 762.25 35.552 762.41 35.216C762.586 34.88 762.674 34.432 762.674 33.872C762.674 33.408 762.586 33.016 762.41 32.696C762.234 32.376 761.994 32.128 761.69 31.952C761.386 31.776 761.034 31.688 760.634 31.688H756.986L756.986 36.2ZM756.986 28.952H760.442C760.954 28.952 761.354 28.768 761.642 28.4C761.946 28.016 762.098 27.52 762.098 26.912C762.114 26.128 761.954 25.584 761.618 25.28C761.282 24.976 760.874 24.824 760.394 24.824H756.986L756.986 28.952Z" stroke="white" stroke-width="3" mask="url(#path-4-outside-2_1_4)"/>
<path d="M775.177 39.512C774.201 39.512 773.289 39.432 772.441 39.272C771.593 39.096 770.849 38.8 770.209 38.384C769.585 37.952 769.097 37.36 768.745 36.608C768.409 35.84 768.241 34.864 768.241 33.68L768.241 21.632H771.793L771.793 33.656C771.793 34.312 771.921 34.832 772.177 35.216C772.449 35.6 772.833 35.88 773.329 36.056C773.841 36.232 774.457 36.32 775.177 36.32C775.881 36.32 776.481 36.232 776.977 36.056C777.489 35.88 777.873 35.6 778.129 35.216C778.401 34.832 778.537 34.312 778.537 33.656L778.537 21.632H782.113L782.113 33.68C782.113 34.864 781.937 35.84 781.585 36.608C781.233 37.36 780.745 37.952 780.121 38.384C779.497 38.8 778.761 39.096 777.913 39.272C777.081 39.432 776.169 39.512 775.177 39.512Z" stroke="white" stroke-width="3" mask="url(#path-4-outside-2_1_4)"/>
<path d="M789.158 39.392L789.158 34.016L783.806 21.632H787.502L791.006 30.392L794.486 21.632H798.038L792.71 34.016L792.71 39.392H789.158Z" stroke="white" stroke-width="3" mask="url(#path-4-outside-2_1_4)"/>
<path d="M809.912 39.392L809.912 24.824H805.04L805.04 21.632H818.36L818.36 24.824H813.464L813.464 39.392H809.912Z" stroke="white" stroke-width="3" mask="url(#path-4-outside-2_1_4)"/>
<path d="M820.278 39.392L820.278 21.632H827.622C828.326 21.632 828.982 21.72 829.59 21.896C830.198 22.056 830.734 22.344 831.198 22.76C831.662 23.176 832.022 23.752 832.278 24.488C832.55 25.224 832.686 26.168 832.686 27.32C832.686 28.136 832.606 28.832 832.446 29.408C832.286 29.984 832.07 30.456 831.798 30.824C831.542 31.192 831.246 31.488 830.91 31.712C830.574 31.936 830.23 32.12 829.878 32.264L833.19 39.392H829.566L826.71 32.816C826.518 32.816 826.294 32.816 826.038 32.816C825.798 32.8 825.55 32.792 825.294 32.792C825.038 32.792 824.782 32.792 824.526 32.792C824.27 32.792 824.038 32.784 823.83 32.768L823.83 39.392H820.278ZM823.83 29.96H826.998C827.318 29.96 827.606 29.92 827.862 29.84C828.118 29.76 828.342 29.624 828.534 29.432C828.726 29.224 828.87 28.952 828.966 28.616C829.078 28.28 829.134 27.848 829.134 27.32C829.134 26.824 829.078 26.416 828.966 26.096C828.87 25.76 828.726 25.504 828.534 25.328C828.342 25.136 828.118 25.008 827.862 24.944C827.606 24.864 827.318 24.824 826.998 24.824H823.83L823.83 29.96Z" stroke="white" stroke-width="3" mask="url(#path-4-outside-2_1_4)"/>
<path d="M834.197 39.392L839.764 21.632H844.252L849.821 39.392H846.125L844.997 35.672H838.949L837.845 39.392H834.197ZM839.789 32.48H844.157L841.972 24.68L839.789 32.48Z" stroke="white" stroke-width="3" mask="url(#path-4-outside-2_1_4)"/>
<path d="M851.286 39.392L851.285 25.688C851.285 24.904 851.405 24.248 851.645 23.72C851.885 23.192 852.205 22.776 852.605 22.472C853.005 22.168 853.445 21.952 853.925 21.824C854.405 21.696 854.877 21.632 855.341 21.632C855.917 21.632 856.629 21.64 857.477 21.656C858.341 21.656 859.253 21.68 860.213 21.728C861.189 21.776 862.125 21.848 863.021 21.944L863.021 24.92H856.325C855.829 24.92 855.453 25.056 855.197 25.328C854.957 25.584 854.837 25.928 854.837 26.36L854.837 29.384L861.869 29.576L861.87 32.384L854.838 32.576L854.838 39.392H851.286Z" stroke="white" stroke-width="3" mask="url(#path-4-outside-2_1_4)"/>
<path d="M865.043 39.392L865.043 25.688C865.043 24.904 865.163 24.248 865.403 23.72C865.643 23.192 865.963 22.776 866.363 22.472C866.763 22.168 867.203 21.952 867.683 21.824C868.163 21.696 868.635 21.632 869.099 21.632C869.675 21.632 870.387 21.64 871.235 21.656C872.099 21.656 873.011 21.68 873.971 21.728C874.947 21.776 875.883 21.848 876.779 21.944L876.779 24.92H870.083C869.587 24.92 869.211 25.056 868.955 25.328C868.715 25.584 868.595 25.928 868.595 26.36L868.595 29.384L875.627 29.576L875.627 32.384L868.595 32.576L868.595 39.392H865.043Z" stroke="white" stroke-width="3" mask="url(#path-4-outside-2_1_4)"/>
<path d="M879.036 39.392L879.035 21.632H882.587L882.588 39.392H879.036Z" stroke="white" stroke-width="3" mask="url(#path-4-outside-2_1_4)"/>
<path d="M891.644 39.536C890.604 39.536 889.684 39.416 888.884 39.176C888.1 38.936 887.428 38.496 886.868 37.856C886.324 37.216 885.908 36.304 885.62 35.12C885.348 33.92 885.212 32.368 885.212 30.464C885.212 28.624 885.356 27.12 885.644 25.952C885.948 24.768 886.38 23.856 886.94 23.216C887.5 22.56 888.18 22.104 888.98 21.848C889.78 21.592 890.684 21.464 891.692 21.464C892.492 21.464 893.236 21.512 893.924 21.608C894.628 21.688 895.26 21.792 895.82 21.92C896.38 22.032 896.852 22.16 897.236 22.304L897.236 25.064C896.948 25 896.556 24.936 896.06 24.872C895.58 24.808 895.028 24.76 894.404 24.728C893.78 24.68 893.124 24.656 892.436 24.656C891.764 24.656 891.188 24.736 890.708 24.896C890.244 25.04 889.868 25.32 889.58 25.736C889.308 26.136 889.1 26.72 888.956 27.488C888.828 28.256 888.764 29.256 888.764 30.488C888.764 31.672 888.82 32.648 888.932 33.416C889.06 34.184 889.26 34.784 889.532 35.216C889.804 35.632 890.172 35.928 890.636 36.104C891.116 36.264 891.716 36.344 892.436 36.344C893.652 36.344 894.636 36.32 895.388 36.272C896.156 36.224 896.772 36.168 897.236 36.104L897.236 38.84C896.804 38.984 896.308 39.112 895.748 39.224C895.188 39.32 894.572 39.392 893.9 39.44C893.228 39.504 892.476 39.536 891.644 39.536Z" stroke="white" stroke-width="3" mask="url(#path-4-outside-2_1_4)"/>
<path d="M941.892 39L937.644 21.24H941.316L944.172 33.768L947.508 21.24H950.772L954.084 33.768L956.94 21.24H960.612L956.364 39H952.74L949.14 26.472L945.516 39H941.892ZM966.272 39.12C965.888 39.12 965.448 39.08 964.952 39C964.456 38.936 963.976 38.776 963.512 38.52C963.064 38.264 962.688 37.88 962.384 37.368C962.096 36.84 961.952 36.12 961.952 35.208L961.952 25.296C961.952 24.512 962.072 23.856 962.312 23.328C962.552 22.8 962.872 22.384 963.272 22.08C963.672 21.776 964.112 21.56 964.592 21.432C965.072 21.304 965.544 21.24 966.008 21.24C967.208 21.24 968.264 21.256 969.176 21.288C970.104 21.32 970.936 21.36 971.672 21.408C972.408 21.44 973.08 21.488 973.688 21.552L973.688 24.528H967.064C966.568 24.528 966.184 24.648 965.912 24.888C965.64 25.128 965.504 25.496 965.504 25.992L965.504 28.56L972.536 28.752L972.536 31.56L965.504 31.752L965.504 34.2C965.504 34.616 965.568 34.944 965.696 35.184C965.84 35.408 966.024 35.568 966.248 35.664C966.488 35.744 966.736 35.784 966.992 35.784H973.688L973.688 38.76C972.984 38.84 972.2 38.904 971.336 38.952C970.488 39 969.624 39.04 968.744 39.072C967.88 39.104 967.056 39.12 966.272 39.12ZM982.46 39L982.46 21.24H989.444C991.204 21.24 992.484 21.648 993.284 22.464C994.1 23.264 994.508 24.408 994.508 25.896C994.508 26.6 994.404 27.224 994.196 27.768C994.004 28.296 993.724 28.736 993.356 29.088C992.988 29.424 992.548 29.656 992.036 29.784C992.42 29.88 992.788 30.032 993.14 30.24C993.508 30.448 993.836 30.728 994.124 31.08C994.428 31.432 994.66 31.864 994.82 32.376C994.996 32.872 995.084 33.448 995.084 34.104C995.084 35.304 994.876 36.264 994.46 36.984C994.06 37.704 993.46 38.224 992.66 38.544C991.876 38.848 990.908 39 989.756 39H982.46ZM986.012 35.808H989.66C990.076 35.808 990.436 35.728 990.74 35.568C991.044 35.408 991.276 35.16 991.436 34.824C991.612 34.488 991.7 34.04 991.7 33.48C991.7 33.016 991.612 32.624 991.436 32.304C991.26 31.984 991.02 31.736 990.716 31.56C990.412 31.384 990.06 31.296 989.66 31.296H986.012L986.012 35.808ZM986.012 28.56H989.468C989.98 28.56 990.38 28.376 990.668 28.008C990.972 27.624 991.124 27.128 991.124 26.52C991.14 25.736 990.98 25.192 990.644 24.888C990.308 24.584 989.9 24.432 989.42 24.432H986.012L986.012 28.56ZM1004.2 39.12C1003.23 39.12 1002.31 39.04 1001.47 38.88C1000.62 38.704 999.875 38.408 999.235 37.992C998.611 37.56 998.123 36.968 997.771 36.216C997.435 35.448 997.267 34.472 997.267 33.288L997.266 21.24H1000.82L1000.82 33.264C1000.82 33.92 1000.95 34.44 1001.2 34.824C1001.47 35.208 1001.86 35.488 1002.35 35.664C1002.87 35.84 1003.48 35.928 1004.2 35.928C1004.91 35.928 1005.51 35.84 1006 35.664C1006.51 35.488 1006.9 35.208 1007.15 34.824C1007.43 34.44 1007.56 33.92 1007.56 33.264L1007.56 21.24H1011.14L1011.14 33.288C1011.14 34.472 1010.96 35.448 1010.61 36.216C1010.26 36.968 1009.77 37.56 1009.15 37.992C1008.52 38.408 1007.79 38.704 1006.94 38.88C1006.11 39.04 1005.19 39.12 1004.2 39.12ZM1018.18 39L1018.18 33.624L1012.83 21.24H1016.53L1020.03 30L1023.51 21.24H1027.06L1021.74 33.624L1021.74 39H1018.18ZM1038.94 39L1038.94 24.432H1034.07L1034.07 21.24H1047.39L1047.39 24.432H1042.49L1042.49 39H1038.94ZM1049.3 39L1049.3 21.24H1056.65C1057.35 21.24 1058.01 21.328 1058.62 21.504C1059.22 21.664 1059.76 21.952 1060.22 22.368C1060.69 22.784 1061.05 23.36 1061.3 24.096C1061.58 24.832 1061.71 25.776 1061.71 26.928C1061.71 27.744 1061.63 28.44 1061.47 29.016C1061.31 29.592 1061.1 30.064 1060.82 30.432C1060.57 30.8 1060.27 31.096 1059.94 31.32C1059.6 31.544 1059.26 31.728 1058.9 31.872L1062.22 39H1058.59L1055.74 32.424C1055.54 32.424 1055.32 32.424 1055.06 32.424C1054.82 32.408 1054.58 32.4 1054.32 32.4C1054.06 32.4 1053.81 32.4 1053.55 32.4C1053.3 32.4 1053.06 32.392 1052.86 32.376L1052.86 39H1049.3ZM1052.86 29.568H1056.02C1056.34 29.568 1056.63 29.528 1056.89 29.448C1057.14 29.368 1057.37 29.232 1057.56 29.04C1057.75 28.832 1057.9 28.56 1057.99 28.224C1058.1 27.888 1058.16 27.456 1058.16 26.928C1058.16 26.432 1058.1 26.024 1057.99 25.704C1057.9 25.368 1057.75 25.112 1057.56 24.936C1057.37 24.744 1057.14 24.616 1056.89 24.552C1056.63 24.472 1056.34 24.432 1056.02 24.432H1052.86L1052.86 29.568ZM1063.22 39L1068.79 21.24H1073.28L1078.85 39H1075.15L1074.02 35.28H1067.97L1066.87 39H1063.22ZM1068.81 32.088H1073.18L1071 24.288L1068.81 32.088ZM1080.31 39L1080.31 25.296C1080.31 24.512 1080.43 23.856 1080.67 23.328C1080.91 22.8 1081.23 22.384 1081.63 22.08C1082.03 21.776 1082.47 21.56 1082.95 21.432C1083.43 21.304 1083.9 21.24 1084.37 21.24C1084.94 21.24 1085.66 21.248 1086.5 21.264C1087.37 21.264 1088.28 21.288 1089.24 21.336C1090.22 21.384 1091.15 21.456 1092.05 21.552L1092.05 24.528H1085.35C1084.86 24.528 1084.48 24.664 1084.22 24.936C1083.98 25.192 1083.86 25.536 1083.86 25.968L1083.86 28.992L1090.9 29.184L1090.9 31.992L1083.86 32.184L1083.86 39H1080.31ZM1094.07 39L1094.07 25.296C1094.07 24.512 1094.19 23.856 1094.43 23.328C1094.67 22.8 1094.99 22.384 1095.39 22.08C1095.79 21.776 1096.23 21.56 1096.71 21.432C1097.19 21.304 1097.66 21.24 1098.12 21.24C1098.7 21.24 1099.41 21.248 1100.26 21.264C1101.12 21.264 1102.04 21.288 1103 21.336C1103.97 21.384 1104.91 21.456 1105.81 21.552L1105.81 24.528H1099.11C1098.61 24.528 1098.24 24.664 1097.98 24.936C1097.74 25.192 1097.62 25.536 1097.62 25.968L1097.62 28.992L1104.65 29.184L1104.65 31.992L1097.62 32.184L1097.62 39H1094.07ZM1108.06 39L1108.06 21.24H1111.61L1111.61 39H1108.06ZM1120.67 39.144C1119.63 39.144 1118.71 39.024 1117.91 38.784C1117.13 38.544 1116.45 38.104 1115.89 37.464C1115.35 36.824 1114.93 35.912 1114.65 34.728C1114.37 33.528 1114.24 31.976 1114.24 30.072C1114.24 28.232 1114.38 26.728 1114.67 25.56C1114.97 24.376 1115.41 23.464 1115.97 22.824C1116.53 22.168 1117.21 21.712 1118.01 21.456C1118.81 21.2 1119.71 21.072 1120.72 21.072C1121.52 21.072 1122.26 21.12 1122.95 21.216C1123.65 21.296 1124.29 21.4 1124.85 21.528C1125.41 21.64 1125.88 21.768 1126.26 21.912L1126.26 24.672C1125.97 24.608 1125.58 24.544 1125.09 24.48C1124.61 24.416 1124.05 24.368 1123.43 24.336C1122.81 24.288 1122.15 24.264 1121.46 24.264C1120.79 24.264 1120.21 24.344 1119.73 24.504C1119.27 24.648 1118.89 24.928 1118.61 25.344C1118.33 25.744 1118.13 26.328 1117.98 27.096C1117.85 27.864 1117.79 28.864 1117.79 30.096C1117.79 31.28 1117.85 32.256 1117.96 33.024C1118.09 33.792 1118.29 34.392 1118.56 34.824C1118.83 35.24 1119.2 35.536 1119.66 35.712C1120.14 35.872 1120.74 35.952 1121.46 35.952C1122.68 35.952 1123.66 35.928 1124.41 35.88C1125.18 35.832 1125.8 35.776 1126.26 35.712L1126.26 38.448C1125.83 38.592 1125.33 38.72 1124.77 38.832C1124.21 38.928 1123.6 39 1122.93 39.048C1122.25 39.112 1121.5 39.144 1120.67 39.144Z" fill="white"/>
<mask id="path-6-outside-3_1_4" maskUnits="userSpaceOnUse" x="1165.24" y="18.464" width="193" height="23" fill="black">
<rect fill="white" x="1165.24" y="18.464" width="193" height="23"/>
<path d="M1171.48 39.392L1167.24 21.632H1170.91L1173.76 34.16L1177.1 21.632H1180.36L1183.68 34.16L1186.53 21.632H1190.2L1185.96 39.392H1182.33L1178.73 26.864L1175.11 39.392H1171.48Z"/>
<path d="M1195.86 39.512C1195.48 39.512 1195.04 39.472 1194.54 39.392C1194.05 39.328 1193.57 39.168 1193.1 38.912C1192.66 38.656 1192.28 38.272 1191.98 37.76C1191.69 37.232 1191.54 36.512 1191.54 35.6L1191.54 25.688C1191.54 24.904 1191.66 24.248 1191.9 23.72C1192.14 23.192 1192.46 22.776 1192.86 22.472C1193.26 22.168 1193.7 21.952 1194.18 21.824C1194.66 21.696 1195.14 21.632 1195.6 21.632C1196.8 21.632 1197.86 21.648 1198.77 21.68C1199.7 21.712 1200.53 21.752 1201.26 21.8C1202 21.832 1202.67 21.88 1203.28 21.944L1203.28 24.92H1196.66C1196.16 24.92 1195.78 25.04 1195.5 25.28C1195.23 25.52 1195.1 25.888 1195.1 26.384L1195.1 28.952L1202.13 29.144L1202.13 31.952L1195.1 32.144L1195.1 34.592C1195.1 35.008 1195.16 35.336 1195.29 35.576C1195.43 35.8 1195.62 35.96 1195.84 36.056C1196.08 36.136 1196.33 36.176 1196.58 36.176H1203.28L1203.28 39.152C1202.58 39.232 1201.79 39.296 1200.93 39.344C1200.08 39.392 1199.22 39.432 1198.34 39.464C1197.47 39.496 1196.65 39.512 1195.86 39.512Z"/>
<path d="M1212.05 39.392L1212.05 21.632H1219.04C1220.8 21.632 1222.08 22.04 1222.88 22.856C1223.69 23.656 1224.1 24.8 1224.1 26.288C1224.1 26.992 1224 27.616 1223.79 28.16C1223.6 28.688 1223.32 29.128 1222.95 29.48C1222.58 29.816 1222.14 30.048 1221.63 30.176C1222.01 30.272 1222.38 30.424 1222.73 30.632C1223.1 30.84 1223.43 31.12 1223.72 31.472C1224.02 31.824 1224.25 32.256 1224.41 32.768C1224.59 33.264 1224.68 33.84 1224.68 34.496C1224.68 35.696 1224.47 36.656 1224.05 37.376C1223.65 38.096 1223.05 38.616 1222.25 38.936C1221.47 39.24 1220.5 39.392 1219.35 39.392H1212.05ZM1215.6 36.2H1219.25C1219.67 36.2 1220.03 36.12 1220.33 35.96C1220.64 35.8 1220.87 35.552 1221.03 35.216C1221.2 34.88 1221.29 34.432 1221.29 33.872C1221.29 33.408 1221.2 33.016 1221.03 32.696C1220.85 32.376 1220.61 32.128 1220.31 31.952C1220 31.776 1219.65 31.688 1219.25 31.688H1215.6L1215.6 36.2ZM1215.6 28.952H1219.06C1219.57 28.952 1219.97 28.768 1220.26 28.4C1220.56 28.016 1220.72 27.52 1220.72 26.912C1220.73 26.128 1220.57 25.584 1220.24 25.28C1219.9 24.976 1219.49 24.824 1219.01 24.824H1215.6L1215.6 28.952Z"/>
<path d="M1233.79 39.512C1232.82 39.512 1231.91 39.432 1231.06 39.272C1230.21 39.096 1229.47 38.8 1228.83 38.384C1228.2 37.952 1227.71 37.36 1227.36 36.608C1227.03 35.84 1226.86 34.864 1226.86 33.68L1226.86 21.632H1230.41L1230.41 33.656C1230.41 34.312 1230.54 34.832 1230.79 35.216C1231.07 35.6 1231.45 35.88 1231.95 36.056C1232.46 36.232 1233.07 36.32 1233.79 36.32C1234.5 36.32 1235.1 36.232 1235.59 36.056C1236.11 35.88 1236.49 35.6 1236.75 35.216C1237.02 34.832 1237.15 34.312 1237.15 33.656L1237.15 21.632H1240.73L1240.73 33.68C1240.73 34.864 1240.55 35.84 1240.2 36.608C1239.85 37.36 1239.36 37.952 1238.74 38.384C1238.11 38.8 1237.38 39.096 1236.53 39.272C1235.7 39.432 1234.79 39.512 1233.79 39.512Z"/>
<path d="M1247.78 39.392L1247.78 34.016L1242.42 21.632H1246.12L1249.62 30.392L1253.1 21.632H1256.66L1251.33 34.016L1251.33 39.392H1247.78Z"/>
<path d="M1268.53 39.392L1268.53 24.824H1263.66L1263.66 21.632H1276.98L1276.98 24.824H1272.08L1272.08 39.392H1268.53Z"/>
<path d="M1278.9 39.392L1278.9 21.632H1286.24C1286.94 21.632 1287.6 21.72 1288.21 21.896C1288.82 22.056 1289.35 22.344 1289.82 22.76C1290.28 23.176 1290.64 23.752 1290.9 24.488C1291.17 25.224 1291.3 26.168 1291.3 27.32C1291.3 28.136 1291.22 28.832 1291.06 29.408C1290.9 29.984 1290.69 30.456 1290.42 30.824C1290.16 31.192 1289.86 31.488 1289.53 31.712C1289.19 31.936 1288.85 32.12 1288.5 32.264L1291.81 39.392H1288.18L1285.33 32.816C1285.14 32.816 1284.91 32.816 1284.66 32.816C1284.42 32.8 1284.17 32.792 1283.91 32.792C1283.66 32.792 1283.4 32.792 1283.14 32.792C1282.89 32.792 1282.66 32.784 1282.45 32.768L1282.45 39.392H1278.9ZM1282.45 29.96H1285.62C1285.94 29.96 1286.22 29.92 1286.48 29.84C1286.74 29.76 1286.96 29.624 1287.15 29.432C1287.34 29.224 1287.49 28.952 1287.58 28.616C1287.7 28.28 1287.75 27.848 1287.75 27.32C1287.75 26.824 1287.7 26.416 1287.58 26.096C1287.49 25.76 1287.34 25.504 1287.15 25.328C1286.96 25.136 1286.74 25.008 1286.48 24.944C1286.22 24.864 1285.94 24.824 1285.62 24.824H1282.45L1282.45 29.96Z"/>
<path d="M1292.81 39.392L1298.38 21.632H1302.87L1308.44 39.392H1304.74L1303.61 35.672H1297.57L1296.46 39.392H1292.81ZM1298.41 32.48H1302.77L1300.59 24.68L1298.41 32.48Z"/>
<path d="M1309.9 39.392L1309.9 25.688C1309.9 24.904 1310.02 24.248 1310.26 23.72C1310.5 23.192 1310.82 22.776 1311.22 22.472C1311.62 22.168 1312.06 21.952 1312.54 21.824C1313.02 21.696 1313.5 21.632 1313.96 21.632C1314.54 21.632 1315.25 21.64 1316.1 21.656C1316.96 21.656 1317.87 21.68 1318.83 21.728C1319.81 21.776 1320.74 21.848 1321.64 21.944L1321.64 24.92H1314.94C1314.45 24.92 1314.07 25.056 1313.82 25.328C1313.58 25.584 1313.46 25.928 1313.46 26.36L1313.46 29.384L1320.49 29.576L1320.49 32.384L1313.46 32.576L1313.46 39.392H1309.9Z"/>
<path d="M1323.66 39.392L1323.66 25.688C1323.66 24.904 1323.78 24.248 1324.02 23.72C1324.26 23.192 1324.58 22.776 1324.98 22.472C1325.38 22.168 1325.82 21.952 1326.3 21.824C1326.78 21.696 1327.25 21.632 1327.72 21.632C1328.29 21.632 1329 21.64 1329.85 21.656C1330.72 21.656 1331.63 21.68 1332.59 21.728C1333.56 21.776 1334.5 21.848 1335.4 21.944L1335.4 24.92H1328.7C1328.21 24.92 1327.83 25.056 1327.57 25.328C1327.33 25.584 1327.21 25.928 1327.21 26.36L1327.21 29.384L1334.25 29.576L1334.25 32.384L1327.21 32.576L1327.21 39.392H1323.66Z"/>
<path d="M1337.65 39.392L1337.65 21.632H1341.21L1341.21 39.392H1337.65Z"/>
<path d="M1350.26 39.536C1349.22 39.536 1348.3 39.416 1347.5 39.176C1346.72 38.936 1346.05 38.496 1345.49 37.856C1344.94 37.216 1344.53 36.304 1344.24 35.12C1343.97 33.92 1343.83 32.368 1343.83 30.464C1343.83 28.624 1343.97 27.12 1344.26 25.952C1344.57 24.768 1345 23.856 1345.56 23.216C1346.12 22.56 1346.8 22.104 1347.6 21.848C1348.4 21.592 1349.3 21.464 1350.31 21.464C1351.11 21.464 1351.85 21.512 1352.54 21.608C1353.25 21.688 1353.88 21.792 1354.44 21.92C1355 22.032 1355.47 22.16 1355.85 22.304L1355.85 25.064C1355.57 25 1355.17 24.936 1354.68 24.872C1354.2 24.808 1353.65 24.76 1353.02 24.728C1352.4 24.68 1351.74 24.656 1351.05 24.656C1350.38 24.656 1349.81 24.736 1349.33 24.896C1348.86 25.04 1348.49 25.32 1348.2 25.736C1347.93 26.136 1347.72 26.72 1347.57 27.488C1347.45 28.256 1347.38 29.256 1347.38 30.488C1347.38 31.672 1347.44 32.648 1347.55 33.416C1347.68 34.184 1347.88 34.784 1348.15 35.216C1348.42 35.632 1348.79 35.928 1349.25 36.104C1349.73 36.264 1350.33 36.344 1351.05 36.344C1352.27 36.344 1353.25 36.32 1354.01 36.272C1354.77 36.224 1355.39 36.168 1355.85 36.104L1355.85 38.84C1355.42 38.984 1354.93 39.112 1354.37 39.224C1353.81 39.32 1353.19 39.392 1352.52 39.44C1351.85 39.504 1351.09 39.536 1350.26 39.536Z"/>
</mask>
<path d="M1171.48 39.392L1167.24 21.632H1170.91L1173.76 34.16L1177.1 21.632H1180.36L1183.68 34.16L1186.53 21.632H1190.2L1185.96 39.392H1182.33L1178.73 26.864L1175.11 39.392H1171.48Z" stroke="white" stroke-width="3" mask="url(#path-6-outside-3_1_4)"/>
<path d="M1195.86 39.512C1195.48 39.512 1195.04 39.472 1194.54 39.392C1194.05 39.328 1193.57 39.168 1193.1 38.912C1192.66 38.656 1192.28 38.272 1191.98 37.76C1191.69 37.232 1191.54 36.512 1191.54 35.6L1191.54 25.688C1191.54 24.904 1191.66 24.248 1191.9 23.72C1192.14 23.192 1192.46 22.776 1192.86 22.472C1193.26 22.168 1193.7 21.952 1194.18 21.824C1194.66 21.696 1195.14 21.632 1195.6 21.632C1196.8 21.632 1197.86 21.648 1198.77 21.68C1199.7 21.712 1200.53 21.752 1201.26 21.8C1202 21.832 1202.67 21.88 1203.28 21.944L1203.28 24.92H1196.66C1196.16 24.92 1195.78 25.04 1195.5 25.28C1195.23 25.52 1195.1 25.888 1195.1 26.384L1195.1 28.952L1202.13 29.144L1202.13 31.952L1195.1 32.144L1195.1 34.592C1195.1 35.008 1195.16 35.336 1195.29 35.576C1195.43 35.8 1195.62 35.96 1195.84 36.056C1196.08 36.136 1196.33 36.176 1196.58 36.176H1203.28L1203.28 39.152C1202.58 39.232 1201.79 39.296 1200.93 39.344C1200.08 39.392 1199.22 39.432 1198.34 39.464C1197.47 39.496 1196.65 39.512 1195.86 39.512Z" stroke="white" stroke-width="3" mask="url(#path-6-outside-3_1_4)"/>
<path d="M1212.05 39.392L1212.05 21.632H1219.04C1220.8 21.632 1222.08 22.04 1222.88 22.856C1223.69 23.656 1224.1 24.8 1224.1 26.288C1224.1 26.992 1224 27.616 1223.79 28.16C1223.6 28.688 1223.32 29.128 1222.95 29.48C1222.58 29.816 1222.14 30.048 1221.63 30.176C1222.01 30.272 1222.38 30.424 1222.73 30.632C1223.1 30.84 1223.43 31.12 1223.72 31.472C1224.02 31.824 1224.25 32.256 1224.41 32.768C1224.59 33.264 1224.68 33.84 1224.68 34.496C1224.68 35.696 1224.47 36.656 1224.05 37.376C1223.65 38.096 1223.05 38.616 1222.25 38.936C1221.47 39.24 1220.5 39.392 1219.35 39.392H1212.05ZM1215.6 36.2H1219.25C1219.67 36.2 1220.03 36.12 1220.33 35.96C1220.64 35.8 1220.87 35.552 1221.03 35.216C1221.2 34.88 1221.29 34.432 1221.29 33.872C1221.29 33.408 1221.2 33.016 1221.03 32.696C1220.85 32.376 1220.61 32.128 1220.31 31.952C1220 31.776 1219.65 31.688 1219.25 31.688H1215.6L1215.6 36.2ZM1215.6 28.952H1219.06C1219.57 28.952 1219.97 28.768 1220.26 28.4C1220.56 28.016 1220.72 27.52 1220.72 26.912C1220.73 26.128 1220.57 25.584 1220.24 25.28C1219.9 24.976 1219.49 24.824 1219.01 24.824H1215.6L1215.6 28.952Z" stroke="white" stroke-width="3" mask="url(#path-6-outside-3_1_4)"/>
<path d="M1233.79 39.512C1232.82 39.512 1231.91 39.432 1231.06 39.272C1230.21 39.096 1229.47 38.8 1228.83 38.384C1228.2 37.952 1227.71 37.36 1227.36 36.608C1227.03 35.84 1226.86 34.864 1226.86 33.68L1226.86 21.632H1230.41L1230.41 33.656C1230.41 34.312 1230.54 34.832 1230.79 35.216C1231.07 35.6 1231.45 35.88 1231.95 36.056C1232.46 36.232 1233.07 36.32 1233.79 36.32C1234.5 36.32 1235.1 36.232 1235.59 36.056C1236.11 35.88 1236.49 35.6 1236.75 35.216C1237.02 34.832 1237.15 34.312 1237.15 33.656L1237.15 21.632H1240.73L1240.73 33.68C1240.73 34.864 1240.55 35.84 1240.2 36.608C1239.85 37.36 1239.36 37.952 1238.74 38.384C1238.11 38.8 1237.38 39.096 1236.53 39.272C1235.7 39.432 1234.79 39.512 1233.79 39.512Z" stroke="white" stroke-width="3" mask="url(#path-6-outside-3_1_4)"/>
<path d="M1247.78 39.392L1247.78 34.016L1242.42 21.632H1246.12L1249.62 30.392L1253.1 21.632H1256.66L1251.33 34.016L1251.33 39.392H1247.78Z" stroke="white" stroke-width="3" mask="url(#path-6-outside-3_1_4)"/>
<path d="M1268.53 39.392L1268.53 24.824H1263.66L1263.66 21.632H1276.98L1276.98 24.824H1272.08L1272.08 39.392H1268.53Z" stroke="white" stroke-width="3" mask="url(#path-6-outside-3_1_4)"/>
<path d="M1278.9 39.392L1278.9 21.632H1286.24C1286.94 21.632 1287.6 21.72 1288.21 21.896C1288.82 22.056 1289.35 22.344 1289.82 22.76C1290.28 23.176 1290.64 23.752 1290.9 24.488C1291.17 25.224 1291.3 26.168 1291.3 27.32C1291.3 28.136 1291.22 28.832 1291.06 29.408C1290.9 29.984 1290.69 30.456 1290.42 30.824C1290.16 31.192 1289.86 31.488 1289.53 31.712C1289.19 31.936 1288.85 32.12 1288.5 32.264L1291.81 39.392H1288.18L1285.33 32.816C1285.14 32.816 1284.91 32.816 1284.66 32.816C1284.42 32.8 1284.17 32.792 1283.91 32.792C1283.66 32.792 1283.4 32.792 1283.14 32.792C1282.89 32.792 1282.66 32.784 1282.45 32.768L1282.45 39.392H1278.9ZM1282.45 29.96H1285.62C1285.94 29.96 1286.22 29.92 1286.48 29.84C1286.74 29.76 1286.96 29.624 1287.15 29.432C1287.34 29.224 1287.49 28.952 1287.58 28.616C1287.7 28.28 1287.75 27.848 1287.75 27.32C1287.75 26.824 1287.7 26.416 1287.58 26.096C1287.49 25.76 1287.34 25.504 1287.15 25.328C1286.96 25.136 1286.74 25.008 1286.48 24.944C1286.22 24.864 1285.94 24.824 1285.62 24.824H1282.45L1282.45 29.96Z" stroke="white" stroke-width="3" mask="url(#path-6-outside-3_1_4)"/>
<path d="M1292.81 39.392L1298.38 21.632H1302.87L1308.44 39.392H1304.74L1303.61 35.672H1297.57L1296.46 39.392H1292.81ZM1298.41 32.48H1302.77L1300.59 24.68L1298.41 32.48Z" stroke="white" stroke-width="3" mask="url(#path-6-outside-3_1_4)"/>
<path d="M1309.9 39.392L1309.9 25.688C1309.9 24.904 1310.02 24.248 1310.26 23.72C1310.5 23.192 1310.82 22.776 1311.22 22.472C1311.62 22.168 1312.06 21.952 1312.54 21.824C1313.02 21.696 1313.5 21.632 1313.96 21.632C1314.54 21.632 1315.25 21.64 1316.1 21.656C1316.96 21.656 1317.87 21.68 1318.83 21.728C1319.81 21.776 1320.74 21.848 1321.64 21.944L1321.64 24.92H1314.94C1314.45 24.92 1314.07 25.056 1313.82 25.328C1313.58 25.584 1313.46 25.928 1313.46 26.36L1313.46 29.384L1320.49 29.576L1320.49 32.384L1313.46 32.576L1313.46 39.392H1309.9Z" stroke="white" stroke-width="3" mask="url(#path-6-outside-3_1_4)"/>
<path d="M1323.66 39.392L1323.66 25.688C1323.66 24.904 1323.78 24.248 1324.02 23.72C1324.26 23.192 1324.58 22.776 1324.98 22.472C1325.38 22.168 1325.82 21.952 1326.3 21.824C1326.78 21.696 1327.25 21.632 1327.72 21.632C1328.29 21.632 1329 21.64 1329.85 21.656C1330.72 21.656 1331.63 21.68 1332.59 21.728C1333.56 21.776 1334.5 21.848 1335.4 21.944L1335.4 24.92H1328.7C1328.21 24.92 1327.83 25.056 1327.57 25.328C1327.33 25.584 1327.21 25.928 1327.21 26.36L1327.21 29.384L1334.25 29.576L1334.25 32.384L1327.21 32.576L1327.21 39.392H1323.66Z" stroke="white" stroke-width="3" mask="url(#path-6-outside-3_1_4)"/>
<path d="M1337.65 39.392L1337.65 21.632H1341.21L1341.21 39.392H1337.65Z" stroke="white" stroke-width="3" mask="url(#path-6-outside-3_1_4)"/>
<path d="M1350.26 39.536C1349.22 39.536 1348.3 39.416 1347.5 39.176C1346.72 38.936 1346.05 38.496 1345.49 37.856C1344.94 37.216 1344.53 36.304 1344.24 35.12C1343.97 33.92 1343.83 32.368 1343.83 30.464C1343.83 28.624 1343.97 27.12 1344.26 25.952C1344.57 24.768 1345 23.856 1345.56 23.216C1346.12 22.56 1346.8 22.104 1347.6 21.848C1348.4 21.592 1349.3 21.464 1350.31 21.464C1351.11 21.464 1351.85 21.512 1352.54 21.608C1353.25 21.688 1353.88 21.792 1354.44 21.92C1355 22.032 1355.47 22.16 1355.85 22.304L1355.85 25.064C1355.57 25 1355.17 24.936 1354.68 24.872C1354.2 24.808 1353.65 24.76 1353.02 24.728C1352.4 24.68 1351.74 24.656 1351.05 24.656C1350.38 24.656 1349.81 24.736 1349.33 24.896C1348.86 25.04 1348.49 25.32 1348.2 25.736C1347.93 26.136 1347.72 26.72 1347.57 27.488C1347.45 28.256 1347.38 29.256 1347.38 30.488C1347.38 31.672 1347.44 32.648 1347.55 33.416C1347.68 34.184 1347.88 34.784 1348.15 35.216C1348.42 35.632 1348.79 35.928 1349.25 36.104C1349.73 36.264 1350.33 36.344 1351.05 36.344C1352.27 36.344 1353.25 36.32 1354.01 36.272C1354.77 36.224 1355.39 36.168 1355.85 36.104L1355.85 38.84C1355.42 38.984 1354.93 39.112 1354.37 39.224C1353.81 39.32 1353.19 39.392 1352.52 39.44C1351.85 39.504 1351.09 39.536 1350.26 39.536Z" stroke="white" stroke-width="3" mask="url(#path-6-outside-3_1_4)"/>
<path d="M1400.51 39L1396.26 21.24H1399.93L1402.79 33.768L1406.13 21.24H1409.39L1412.7 33.768L1415.56 21.24H1419.23L1414.98 39H1411.36L1407.76 26.472L1404.13 39H1400.51ZM1424.89 39.12C1424.51 39.12 1424.07 39.08 1423.57 39C1423.07 38.936 1422.59 38.776 1422.13 38.52C1421.68 38.264 1421.31 37.88 1421 37.368C1420.71 36.84 1420.57 36.12 1420.57 35.208L1420.57 25.296C1420.57 24.512 1420.69 23.856 1420.93 23.328C1421.17 22.8 1421.49 22.384 1421.89 22.08C1422.29 21.776 1422.73 21.56 1423.21 21.432C1423.69 21.304 1424.16 21.24 1424.63 21.24C1425.83 21.24 1426.88 21.256 1427.79 21.288C1428.72 21.32 1429.55 21.36 1430.29 21.408C1431.03 21.44 1431.7 21.488 1432.31 21.552L1432.31 24.528H1425.68C1425.19 24.528 1424.8 24.648 1424.53 24.888C1424.26 25.128 1424.12 25.496 1424.12 25.992L1424.12 28.56L1431.15 28.752L1431.15 31.56L1424.12 31.752L1424.12 34.2C1424.12 34.616 1424.19 34.944 1424.31 35.184C1424.46 35.408 1424.64 35.568 1424.87 35.664C1425.11 35.744 1425.35 35.784 1425.61 35.784H1432.31L1432.31 38.76C1431.6 38.84 1430.82 38.904 1429.95 38.952C1429.11 39 1428.24 39.04 1427.36 39.072C1426.5 39.104 1425.67 39.12 1424.89 39.12ZM1441.08 39L1441.08 21.24H1448.06C1449.82 21.24 1451.1 21.648 1451.9 22.464C1452.72 23.264 1453.13 24.408 1453.13 25.896C1453.13 26.6 1453.02 27.224 1452.81 27.768C1452.62 28.296 1452.34 28.736 1451.97 29.088C1451.61 29.424 1451.17 29.656 1450.65 29.784C1451.04 29.88 1451.41 30.032 1451.76 30.24C1452.13 30.448 1452.45 30.728 1452.74 31.08C1453.05 31.432 1453.28 31.864 1453.44 32.376C1453.61 32.872 1453.7 33.448 1453.7 34.104C1453.7 35.304 1453.49 36.264 1453.08 36.984C1452.68 37.704 1452.08 38.224 1451.28 38.544C1450.49 38.848 1449.53 39 1448.37 39H1441.08ZM1444.63 35.808H1448.28C1448.69 35.808 1449.05 35.728 1449.36 35.568C1449.66 35.408 1449.89 35.16 1450.05 34.824C1450.23 34.488 1450.32 34.04 1450.32 33.48C1450.32 33.016 1450.23 32.624 1450.05 32.304C1449.88 31.984 1449.64 31.736 1449.33 31.56C1449.03 31.384 1448.68 31.296 1448.28 31.296H1444.63L1444.63 35.808ZM1444.63 28.56H1448.09C1448.6 28.56 1449 28.376 1449.29 28.008C1449.59 27.624 1449.74 27.128 1449.74 26.52C1449.76 25.736 1449.6 25.192 1449.26 24.888C1448.93 24.584 1448.52 24.432 1448.04 24.432H1444.63L1444.63 28.56ZM1462.82 39.12C1461.84 39.12 1460.93 39.04 1460.08 38.88C1459.24 38.704 1458.49 38.408 1457.85 37.992C1457.23 37.56 1456.74 36.968 1456.39 36.216C1456.05 35.448 1455.88 34.472 1455.88 33.288L1455.88 21.24H1459.44L1459.44 33.264C1459.44 33.92 1459.56 34.44 1459.82 34.824C1460.09 35.208 1460.48 35.488 1460.97 35.664C1461.48 35.84 1462.1 35.928 1462.82 35.928C1463.52 35.928 1464.12 35.84 1464.62 35.664C1465.13 35.488 1465.52 35.208 1465.77 34.824C1466.04 34.44 1466.18 33.92 1466.18 33.264L1466.18 21.24H1469.76L1469.76 33.288C1469.76 34.472 1469.58 35.448 1469.23 36.216C1468.88 36.968 1468.39 37.56 1467.76 37.992C1467.14 38.408 1466.4 38.704 1465.56 38.88C1464.72 39.04 1463.81 39.12 1462.82 39.12ZM1476.8 39L1476.8 33.624L1471.45 21.24H1475.15L1478.65 30L1482.13 21.24H1485.68L1480.35 33.624L1480.35 39H1476.8ZM1497.56 39L1497.56 24.432H1492.68L1492.68 21.24H1506L1506 24.432H1501.11L1501.11 39H1497.56ZM1507.92 39L1507.92 21.24H1515.27C1515.97 21.24 1516.63 21.328 1517.23 21.504C1517.84 21.664 1518.38 21.952 1518.84 22.368C1519.31 22.784 1519.67 23.36 1519.92 24.096C1520.19 24.832 1520.33 25.776 1520.33 26.928C1520.33 27.744 1520.25 28.44 1520.09 29.016C1519.93 29.592 1519.71 30.064 1519.44 30.432C1519.19 30.8 1518.89 31.096 1518.55 31.32C1518.22 31.544 1517.87 31.728 1517.52 31.872L1520.83 39H1517.21L1514.35 32.424C1514.16 32.424 1513.94 32.424 1513.68 32.424C1513.44 32.408 1513.19 32.4 1512.94 32.4C1512.68 32.4 1512.43 32.4 1512.17 32.4C1511.91 32.4 1511.68 32.392 1511.47 32.376L1511.47 39H1507.92ZM1511.47 29.568H1514.64C1514.96 29.568 1515.25 29.528 1515.51 29.448C1515.76 29.368 1515.99 29.232 1516.18 29.04C1516.37 28.832 1516.51 28.56 1516.61 28.224C1516.72 27.888 1516.78 27.456 1516.78 26.928C1516.78 26.432 1516.72 26.024 1516.61 25.704C1516.51 25.368 1516.37 25.112 1516.18 24.936C1515.99 24.744 1515.76 24.616 1515.51 24.552C1515.25 24.472 1514.96 24.432 1514.64 24.432H1511.47L1511.47 29.568ZM1521.84 39L1527.41 21.24H1531.9L1537.46 39H1533.77L1532.64 35.28H1526.59L1525.49 39H1521.84ZM1527.43 32.088H1531.8L1529.62 24.288L1527.43 32.088ZM1538.93 39L1538.93 25.296C1538.93 24.512 1539.05 23.856 1539.29 23.328C1539.53 22.8 1539.85 22.384 1540.25 22.08C1540.65 21.776 1541.09 21.56 1541.57 21.432C1542.05 21.304 1542.52 21.24 1542.99 21.24C1543.56 21.24 1544.27 21.248 1545.12 21.264C1545.99 21.264 1546.9 21.288 1547.86 21.336C1548.83 21.384 1549.77 21.456 1550.67 21.552L1550.67 24.528H1543.97C1543.47 24.528 1543.1 24.664 1542.84 24.936C1542.6 25.192 1542.48 25.536 1542.48 25.968L1542.48 28.992L1549.51 29.184L1549.51 31.992L1542.48 32.184L1542.48 39H1538.93ZM1552.69 39L1552.69 25.296C1552.69 24.512 1552.81 23.856 1553.05 23.328C1553.29 22.8 1553.61 22.384 1554.01 22.08C1554.41 21.776 1554.85 21.56 1555.33 21.432C1555.81 21.304 1556.28 21.24 1556.74 21.24C1557.32 21.24 1558.03 21.248 1558.88 21.264C1559.74 21.264 1560.65 21.288 1561.61 21.336C1562.59 21.384 1563.53 21.456 1564.42 21.552L1564.42 24.528H1557.73C1557.23 24.528 1556.85 24.664 1556.6 24.936C1556.36 25.192 1556.24 25.536 1556.24 25.968L1556.24 28.992L1563.27 29.184L1563.27 31.992L1556.24 32.184L1556.24 39H1552.69ZM1566.68 39L1566.68 21.24H1570.23L1570.23 39H1566.68ZM1579.29 39.144C1578.25 39.144 1577.33 39.024 1576.53 38.784C1575.74 38.544 1575.07 38.104 1574.51 37.464C1573.97 36.824 1573.55 35.912 1573.26 34.728C1572.99 33.528 1572.86 31.976 1572.86 30.072C1572.86 28.232 1573 26.728 1573.29 25.56C1573.59 24.376 1574.02 23.464 1574.58 22.824C1575.14 22.168 1575.82 21.712 1576.62 21.456C1577.42 21.2 1578.33 21.072 1579.34 21.072C1580.14 21.072 1580.88 21.12 1581.57 21.216C1582.27 21.296 1582.9 21.4 1583.46 21.528C1584.02 21.64 1584.5 21.768 1584.88 21.912L1584.88 24.672C1584.59 24.608 1584.2 24.544 1583.7 24.48C1583.22 24.416 1582.67 24.368 1582.05 24.336C1581.42 24.288 1580.77 24.264 1580.08 24.264C1579.41 24.264 1578.83 24.344 1578.35 24.504C1577.89 24.648 1577.51 24.928 1577.22 25.344C1576.95 25.744 1576.74 26.328 1576.6 27.096C1576.47 27.864 1576.41 28.864 1576.41 30.096C1576.41 31.28 1576.46 32.256 1576.58 33.024C1576.7 33.792 1576.9 34.392 1577.18 34.824C1577.45 35.24 1577.82 35.536 1578.28 35.712C1578.76 35.872 1579.36 35.952 1580.08 35.952C1581.3 35.952 1582.28 35.928 1583.03 35.88C1583.8 35.832 1584.42 35.776 1584.88 35.712L1584.88 38.448C1584.45 38.592 1583.95 38.72 1583.39 38.832C1582.83 38.928 1582.22 39 1581.54 39.048C1580.87 39.112 1580.12 39.144 1579.29 39.144Z" fill="white"/>
<mask id="path-8-outside-4_1_4" maskUnits="userSpaceOnUse" x="1623.85" y="18.464" width="193" height="23" fill="black">
<rect fill="white" x="1623.85" y="18.464" width="193" height="23"/>
<path d="M1630.1 39.392L1625.85 21.632H1629.53L1632.38 34.16L1635.72 21.632H1638.98L1642.29 34.16L1645.15 21.632H1648.82L1644.57 39.392H1640.95L1637.35 26.864L1633.73 39.392H1630.1Z"/>
<path d="M1654.48 39.512C1654.1 39.512 1653.66 39.472 1653.16 39.392C1652.67 39.328 1652.19 39.168 1651.72 38.912C1651.27 38.656 1650.9 38.272 1650.59 37.76C1650.31 37.232 1650.16 36.512 1650.16 35.6L1650.16 25.688C1650.16 24.904 1650.28 24.248 1650.52 23.72C1650.76 23.192 1651.08 22.776 1651.48 22.472C1651.88 22.168 1652.32 21.952 1652.8 21.824C1653.28 21.696 1653.75 21.632 1654.22 21.632C1655.42 21.632 1656.47 21.648 1657.39 21.68C1658.31 21.712 1659.15 21.752 1659.88 21.8C1660.62 21.832 1661.29 21.88 1661.9 21.944L1661.9 24.92H1655.27C1654.78 24.92 1654.39 25.04 1654.12 25.28C1653.85 25.52 1653.71 25.888 1653.71 26.384L1653.71 28.952L1660.75 29.144L1660.75 31.952L1653.71 32.144L1653.71 34.592C1653.71 35.008 1653.78 35.336 1653.91 35.576C1654.05 35.8 1654.23 35.96 1654.46 36.056C1654.7 36.136 1654.95 36.176 1655.2 36.176H1661.9L1661.9 39.152C1661.19 39.232 1660.41 39.296 1659.55 39.344C1658.7 39.392 1657.83 39.432 1656.95 39.464C1656.09 39.496 1655.27 39.512 1654.48 39.512Z"/>
<path d="M1670.67 39.392L1670.67 21.632H1677.65C1679.41 21.632 1680.69 22.04 1681.49 22.856C1682.31 23.656 1682.72 24.8 1682.72 26.288C1682.72 26.992 1682.61 27.616 1682.41 28.16C1682.21 28.688 1681.93 29.128 1681.57 29.48C1681.2 29.816 1680.76 30.048 1680.25 30.176C1680.63 30.272 1681 30.424 1681.35 30.632C1681.72 30.84 1682.05 31.12 1682.33 31.472C1682.64 31.824 1682.87 32.256 1683.03 32.768C1683.21 33.264 1683.29 33.84 1683.29 34.496C1683.29 35.696 1683.09 36.656 1682.67 37.376C1682.27 38.096 1681.67 38.616 1680.87 38.936C1680.09 39.24 1679.12 39.392 1677.97 39.392H1670.67ZM1674.22 36.2H1677.87C1678.29 36.2 1678.65 36.12 1678.95 35.96C1679.25 35.8 1679.49 35.552 1679.65 35.216C1679.82 34.88 1679.91 34.432 1679.91 33.872C1679.91 33.408 1679.82 33.016 1679.65 32.696C1679.47 32.376 1679.23 32.128 1678.93 31.952C1678.62 31.776 1678.27 31.688 1677.87 31.688H1674.22L1674.22 36.2ZM1674.22 28.952H1677.68C1678.19 28.952 1678.59 28.768 1678.88 28.4C1679.18 28.016 1679.33 27.52 1679.33 26.912C1679.35 26.128 1679.19 25.584 1678.85 25.28C1678.52 24.976 1678.11 24.824 1677.63 24.824H1674.22L1674.22 28.952Z"/>
<path d="M1692.41 39.512C1691.44 39.512 1690.52 39.432 1689.68 39.272C1688.83 39.096 1688.08 38.8 1687.44 38.384C1686.82 37.952 1686.33 37.36 1685.98 36.608C1685.64 35.84 1685.48 34.864 1685.48 33.68L1685.48 21.632H1689.03L1689.03 33.656C1689.03 34.312 1689.16 34.832 1689.41 35.216C1689.68 35.6 1690.07 35.88 1690.56 36.056C1691.08 36.232 1691.69 36.32 1692.41 36.32C1693.12 36.32 1693.72 36.232 1694.21 36.056C1694.72 35.88 1695.11 35.6 1695.36 35.216C1695.64 34.832 1695.77 34.312 1695.77 33.656L1695.77 21.632H1699.35L1699.35 33.68C1699.35 34.864 1699.17 35.84 1698.82 36.608C1698.47 37.36 1697.98 37.952 1697.36 38.384C1696.73 38.8 1696 39.096 1695.15 39.272C1694.32 39.432 1693.4 39.512 1692.41 39.512Z"/>
<path d="M1706.39 39.392L1706.39 34.016L1701.04 21.632H1704.74L1708.24 30.392L1711.72 21.632H1715.27L1709.95 34.016L1709.95 39.392H1706.39Z"/>
<path d="M1727.15 39.392L1727.15 24.824H1722.28L1722.28 21.632H1735.6L1735.6 24.824H1730.7L1730.7 39.392H1727.15Z"/>
<path d="M1737.51 39.392L1737.51 21.632H1744.86C1745.56 21.632 1746.22 21.72 1746.83 21.896C1747.43 22.056 1747.97 22.344 1748.43 22.76C1748.9 23.176 1749.26 23.752 1749.51 24.488C1749.79 25.224 1749.92 26.168 1749.92 27.32C1749.92 28.136 1749.84 28.832 1749.68 29.408C1749.52 29.984 1749.31 30.456 1749.03 30.824C1748.78 31.192 1748.48 31.488 1748.15 31.712C1747.81 31.936 1747.47 32.12 1747.11 32.264L1750.43 39.392H1746.8L1743.95 32.816C1743.75 32.816 1743.53 32.816 1743.27 32.816C1743.03 32.8 1742.79 32.792 1742.53 32.792C1742.27 32.792 1742.02 32.792 1741.76 32.792C1741.51 32.792 1741.27 32.784 1741.07 32.768L1741.07 39.392H1737.51ZM1741.07 29.96H1744.23C1744.55 29.96 1744.84 29.92 1745.1 29.84C1745.35 29.76 1745.58 29.624 1745.77 29.432C1745.96 29.224 1746.11 28.952 1746.2 28.616C1746.31 28.28 1746.37 27.848 1746.37 27.32C1746.37 26.824 1746.31 26.416 1746.2 26.096C1746.11 25.76 1745.96 25.504 1745.77 25.328C1745.58 25.136 1745.35 25.008 1745.1 24.944C1744.84 24.864 1744.55 24.824 1744.23 24.824H1741.07L1741.07 29.96Z"/>
<path d="M1751.43 39.392L1757 21.632H1761.49L1767.06 39.392H1763.36L1762.23 35.672H1756.18L1755.08 39.392H1751.43ZM1757.02 32.48H1761.39L1759.21 24.68L1757.02 32.48Z"/>
<path d="M1768.52 39.392L1768.52 25.688C1768.52 24.904 1768.64 24.248 1768.88 23.72C1769.12 23.192 1769.44 22.776 1769.84 22.472C1770.24 22.168 1770.68 21.952 1771.16 21.824C1771.64 21.696 1772.11 21.632 1772.58 21.632C1773.15 21.632 1773.87 21.64 1774.71 21.656C1775.58 21.656 1776.49 21.68 1777.45 21.728C1778.43 21.776 1779.36 21.848 1780.26 21.944L1780.26 24.92H1773.56C1773.07 24.92 1772.69 25.056 1772.43 25.328C1772.19 25.584 1772.07 25.928 1772.07 26.36L1772.07 29.384L1779.11 29.576L1779.11 32.384L1772.07 32.576L1772.07 39.392H1768.52Z"/>
<path d="M1782.28 39.392L1782.28 25.688C1782.28 24.904 1782.4 24.248 1782.64 23.72C1782.88 23.192 1783.2 22.776 1783.6 22.472C1784 22.168 1784.44 21.952 1784.92 21.824C1785.4 21.696 1785.87 21.632 1786.33 21.632C1786.91 21.632 1787.62 21.64 1788.47 21.656C1789.33 21.656 1790.25 21.68 1791.21 21.728C1792.18 21.776 1793.12 21.848 1794.01 21.944L1794.01 24.92H1787.32C1786.82 24.92 1786.45 25.056 1786.19 25.328C1785.95 25.584 1785.83 25.928 1785.83 26.36L1785.83 29.384L1792.86 29.576L1792.86 32.384L1785.83 32.576L1785.83 39.392H1782.28Z"/>
<path d="M1796.27 39.392L1796.27 21.632H1799.82L1799.82 39.392H1796.27Z"/>
<path d="M1808.88 39.536C1807.84 39.536 1806.92 39.416 1806.12 39.176C1805.34 38.936 1804.66 38.496 1804.1 37.856C1803.56 37.216 1803.14 36.304 1802.86 35.12C1802.58 33.92 1802.45 32.368 1802.45 30.464C1802.45 28.624 1802.59 27.12 1802.88 25.952C1803.18 24.768 1803.62 23.856 1804.18 23.216C1804.74 22.56 1805.42 22.104 1806.22 21.848C1807.02 21.592 1807.92 21.464 1808.93 21.464C1809.73 21.464 1810.47 21.512 1811.16 21.608C1811.86 21.688 1812.5 21.792 1813.06 21.92C1813.62 22.032 1814.09 22.16 1814.47 22.304L1814.47 25.064C1814.18 25 1813.79 24.936 1813.3 24.872C1812.82 24.808 1812.26 24.76 1811.64 24.728C1811.02 24.68 1810.36 24.656 1809.67 24.656C1809 24.656 1808.42 24.736 1807.94 24.896C1807.48 25.04 1807.1 25.32 1806.82 25.736C1806.54 26.136 1806.34 26.72 1806.19 27.488C1806.06 28.256 1806 29.256 1806 30.488C1806 31.672 1806.06 32.648 1806.17 33.416C1806.3 34.184 1806.5 34.784 1806.77 35.216C1807.04 35.632 1807.41 35.928 1807.87 36.104C1808.35 36.264 1808.95 36.344 1809.67 36.344C1810.89 36.344 1811.87 36.32 1812.62 36.272C1813.39 36.224 1814.01 36.168 1814.47 36.104L1814.47 38.84C1814.04 38.984 1813.54 39.112 1812.98 39.224C1812.42 39.32 1811.81 39.392 1811.14 39.44C1810.46 39.504 1809.71 39.536 1808.88 39.536Z"/>
</mask>
<path d="M1630.1 39.392L1625.85 21.632H1629.53L1632.38 34.16L1635.72 21.632H1638.98L1642.29 34.16L1645.15 21.632H1648.82L1644.57 39.392H1640.95L1637.35 26.864L1633.73 39.392H1630.1Z" stroke="white" stroke-width="3" mask="url(#path-8-outside-4_1_4)"/>
<path d="M1654.48 39.512C1654.1 39.512 1653.66 39.472 1653.16 39.392C1652.67 39.328 1652.19 39.168 1651.72 38.912C1651.27 38.656 1650.9 38.272 1650.59 37.76C1650.31 37.232 1650.16 36.512 1650.16 35.6L1650.16 25.688C1650.16 24.904 1650.28 24.248 1650.52 23.72C1650.76 23.192 1651.08 22.776 1651.48 22.472C1651.88 22.168 1652.32 21.952 1652.8 21.824C1653.28 21.696 1653.75 21.632 1654.22 21.632C1655.42 21.632 1656.47 21.648 1657.39 21.68C1658.31 21.712 1659.15 21.752 1659.88 21.8C1660.62 21.832 1661.29 21.88 1661.9 21.944L1661.9 24.92H1655.27C1654.78 24.92 1654.39 25.04 1654.12 25.28C1653.85 25.52 1653.71 25.888 1653.71 26.384L1653.71 28.952L1660.75 29.144L1660.75 31.952L1653.71 32.144L1653.71 34.592C1653.71 35.008 1653.78 35.336 1653.91 35.576C1654.05 35.8 1654.23 35.96 1654.46 36.056C1654.7 36.136 1654.95 36.176 1655.2 36.176H1661.9L1661.9 39.152C1661.19 39.232 1660.41 39.296 1659.55 39.344C1658.7 39.392 1657.83 39.432 1656.95 39.464C1656.09 39.496 1655.27 39.512 1654.48 39.512Z" stroke="white" stroke-width="3" mask="url(#path-8-outside-4_1_4)"/>
<path d="M1670.67 39.392L1670.67 21.632H1677.65C1679.41 21.632 1680.69 22.04 1681.49 22.856C1682.31 23.656 1682.72 24.8 1682.72 26.288C1682.72 26.992 1682.61 27.616 1682.41 28.16C1682.21 28.688 1681.93 29.128 1681.57 29.48C1681.2 29.816 1680.76 30.048 1680.25 30.176C1680.63 30.272 1681 30.424 1681.35 30.632C1681.72 30.84 1682.05 31.12 1682.33 31.472C1682.64 31.824 1682.87 32.256 1683.03 32.768C1683.21 33.264 1683.29 33.84 1683.29 34.496C1683.29 35.696 1683.09 36.656 1682.67 37.376C1682.27 38.096 1681.67 38.616 1680.87 38.936C1680.09 39.24 1679.12 39.392 1677.97 39.392H1670.67ZM1674.22 36.2H1677.87C1678.29 36.2 1678.65 36.12 1678.95 35.96C1679.25 35.8 1679.49 35.552 1679.65 35.216C1679.82 34.88 1679.91 34.432 1679.91 33.872C1679.91 33.408 1679.82 33.016 1679.65 32.696C1679.47 32.376 1679.23 32.128 1678.93 31.952C1678.62 31.776 1678.27 31.688 1677.87 31.688H1674.22L1674.22 36.2ZM1674.22 28.952H1677.68C1678.19 28.952 1678.59 28.768 1678.88 28.4C1679.18 28.016 1679.33 27.52 1679.33 26.912C1679.35 26.128 1679.19 25.584 1678.85 25.28C1678.52 24.976 1678.11 24.824 1677.63 24.824H1674.22L1674.22 28.952Z" stroke="white" stroke-width="3" mask="url(#path-8-outside-4_1_4)"/>
<path d="M1692.41 39.512C1691.44 39.512 1690.52 39.432 1689.68 39.272C1688.83 39.096 1688.08 38.8 1687.44 38.384C1686.82 37.952 1686.33 37.36 1685.98 36.608C1685.64 35.84 1685.48 34.864 1685.48 33.68L1685.48 21.632H1689.03L1689.03 33.656C1689.03 34.312 1689.16 34.832 1689.41 35.216C1689.68 35.6 1690.07 35.88 1690.56 36.056C1691.08 36.232 1691.69 36.32 1692.41 36.32C1693.12 36.32 1693.72 36.232 1694.21 36.056C1694.72 35.88 1695.11 35.6 1695.36 35.216C1695.64 34.832 1695.77 34.312 1695.77 33.656L1695.77 21.632H1699.35L1699.35 33.68C1699.35 34.864 1699.17 35.84 1698.82 36.608C1698.47 37.36 1697.98 37.952 1697.36 38.384C1696.73 38.8 1696 39.096 1695.15 39.272C1694.32 39.432 1693.4 39.512 1692.41 39.512Z" stroke="white" stroke-width="3" mask="url(#path-8-outside-4_1_4)"/>
<path d="M1706.39 39.392L1706.39 34.016L1701.04 21.632H1704.74L1708.24 30.392L1711.72 21.632H1715.27L1709.95 34.016L1709.95 39.392H1706.39Z" stroke="white" stroke-width="3" mask="url(#path-8-outside-4_1_4)"/>
<path d="M1727.15 39.392L1727.15 24.824H1722.28L1722.28 21.632H1735.6L1735.6 24.824H1730.7L1730.7 39.392H1727.15Z" stroke="white" stroke-width="3" mask="url(#path-8-outside-4_1_4)"/>
<path d="M1737.51 39.392L1737.51 21.632H1744.86C1745.56 21.632 1746.22 21.72 1746.83 21.896C1747.43 22.056 1747.97 22.344 1748.43 22.76C1748.9 23.176 1749.26 23.752 1749.51 24.488C1749.79 25.224 1749.92 26.168 1749.92 27.32C1749.92 28.136 1749.84 28.832 1749.68 29.408C1749.52 29.984 1749.31 30.456 1749.03 30.824C1748.78 31.192 1748.48 31.488 1748.15 31.712C1747.81 31.936 1747.47 32.12 1747.11 32.264L1750.43 39.392H1746.8L1743.95 32.816C1743.75 32.816 1743.53 32.816 1743.27 32.816C1743.03 32.8 1742.79 32.792 1742.53 32.792C1742.27 32.792 1742.02 32.792 1741.76 32.792C1741.51 32.792 1741.27 32.784 1741.07 32.768L1741.07 39.392H1737.51ZM1741.07 29.96H1744.23C1744.55 29.96 1744.84 29.92 1745.1 29.84C1745.35 29.76 1745.58 29.624 1745.77 29.432C1745.96 29.224 1746.11 28.952 1746.2 28.616C1746.31 28.28 1746.37 27.848 1746.37 27.32C1746.37 26.824 1746.31 26.416 1746.2 26.096C1746.11 25.76 1745.96 25.504 1745.77 25.328C1745.58 25.136 1745.35 25.008 1745.1 24.944C1744.84 24.864 1744.55 24.824 1744.23 24.824H1741.07L1741.07 29.96Z" stroke="white" stroke-width="3" mask="url(#path-8-outside-4_1_4)"/>
<path d="M1751.43 39.392L1757 21.632H1761.49L1767.06 39.392H1763.36L1762.23 35.672H1756.18L1755.08 39.392H1751.43ZM1757.02 32.48H1761.39L1759.21 24.68L1757.02 32.48Z" stroke="white" stroke-width="3" mask="url(#path-8-outside-4_1_4)"/>
<path d="M1768.52 39.392L1768.52 25.688C1768.52 24.904 1768.64 24.248 1768.88 23.72C1769.12 23.192 1769.44 22.776 1769.84 22.472C1770.24 22.168 1770.68 21.952 1771.16 21.824C1771.64 21.696 1772.11 21.632 1772.58 21.632C1773.15 21.632 1773.87 21.64 1774.71 21.656C1775.58 21.656 1776.49 21.68 1777.45 21.728C1778.43 21.776 1779.36 21.848 1780.26 21.944L1780.26 24.92H1773.56C1773.07 24.92 1772.69 25.056 1772.43 25.328C1772.19 25.584 1772.07 25.928 1772.07 26.36L1772.07 29.384L1779.11 29.576L1779.11 32.384L1772.07 32.576L1772.07 39.392H1768.52Z" stroke="white" stroke-width="3" mask="url(#path-8-outside-4_1_4)"/>
<path d="M1782.28 39.392L1782.28 25.688C1782.28 24.904 1782.4 24.248 1782.64 23.72C1782.88 23.192 1783.2 22.776 1783.6 22.472C1784 22.168 1784.44 21.952 1784.92 21.824C1785.4 21.696 1785.87 21.632 1786.33 21.632C1786.91 21.632 1787.62 21.64 1788.47 21.656C1789.33 21.656 1790.25 21.68 1791.21 21.728C1792.18 21.776 1793.12 21.848 1794.01 21.944L1794.01 24.92H1787.32C1786.82 24.92 1786.45 25.056 1786.19 25.328C1785.95 25.584 1785.83 25.928 1785.83 26.36L1785.83 29.384L1792.86 29.576L1792.86 32.384L1785.83 32.576L1785.83 39.392H1782.28Z" stroke="white" stroke-width="3" mask="url(#path-8-outside-4_1_4)"/>
<path d="M1796.27 39.392L1796.27 21.632H1799.82L1799.82 39.392H1796.27Z" stroke="white" stroke-width="3" mask="url(#path-8-outside-4_1_4)"/>
<path d="M1808.88 39.536C1807.84 39.536 1806.92 39.416 1806.12 39.176C1805.34 38.936 1804.66 38.496 1804.1 37.856C1803.56 37.216 1803.14 36.304 1802.86 35.12C1802.58 33.92 1802.45 32.368 1802.45 30.464C1802.45 28.624 1802.59 27.12 1802.88 25.952C1803.18 24.768 1803.62 23.856 1804.18 23.216C1804.74 22.56 1805.42 22.104 1806.22 21.848C1807.02 21.592 1807.92 21.464 1808.93 21.464C1809.73 21.464 1810.47 21.512 1811.16 21.608C1811.86 21.688 1812.5 21.792 1813.06 21.92C1813.62 22.032 1814.09 22.16 1814.47 22.304L1814.47 25.064C1814.18 25 1813.79 24.936 1813.3 24.872C1812.82 24.808 1812.26 24.76 1811.64 24.728C1811.02 24.68 1810.36 24.656 1809.67 24.656C1809 24.656 1808.42 24.736 1807.94 24.896C1807.48 25.04 1807.1 25.32 1806.82 25.736C1806.54 26.136 1806.34 26.72 1806.19 27.488C1806.06 28.256 1806 29.256 1806 30.488C1806 31.672 1806.06 32.648 1806.17 33.416C1806.3 34.184 1806.5 34.784 1806.77 35.216C1807.04 35.632 1807.41 35.928 1807.87 36.104C1808.35 36.264 1808.95 36.344 1809.67 36.344C1810.89 36.344 1811.87 36.32 1812.62 36.272C1813.39 36.224 1814.01 36.168 1814.47 36.104L1814.47 38.84C1814.04 38.984 1813.54 39.112 1812.98 39.224C1812.42 39.32 1811.81 39.392 1811.14 39.44C1810.46 39.504 1809.71 39.536 1808.88 39.536Z" stroke="white" stroke-width="3" mask="url(#path-8-outside-4_1_4)"/>
<path d="M1859.13 39L1854.88 21.24H1858.55L1861.41 33.768L1864.74 21.24H1868.01L1871.32 33.768L1874.18 21.24H1877.85L1873.6 39H1869.98L1866.38 26.472L1862.75 39H1859.13ZM1883.51 39.12C1883.12 39.12 1882.68 39.08 1882.19 39C1881.69 38.936 1881.21 38.776 1880.75 38.52C1880.3 38.264 1879.92 37.88 1879.62 37.368C1879.33 36.84 1879.19 36.12 1879.19 35.208L1879.19 25.296C1879.19 24.512 1879.31 23.856 1879.55 23.328C1879.79 22.8 1880.11 22.384 1880.51 22.08C1880.91 21.776 1881.35 21.56 1881.83 21.432C1882.31 21.304 1882.78 21.24 1883.24 21.24C1884.44 21.24 1885.5 21.256 1886.41 21.288C1887.34 21.32 1888.17 21.36 1888.91 21.408C1889.64 21.44 1890.32 21.488 1890.92 21.552L1890.92 24.528H1884.3C1883.8 24.528 1883.42 24.648 1883.15 24.888C1882.88 25.128 1882.74 25.496 1882.74 25.992L1882.74 28.56L1889.77 28.752L1889.77 31.56L1882.74 31.752L1882.74 34.2C1882.74 34.616 1882.8 34.944 1882.93 35.184C1883.08 35.408 1883.26 35.568 1883.48 35.664C1883.72 35.744 1883.97 35.784 1884.23 35.784H1890.92L1890.92 38.76C1890.22 38.84 1889.44 38.904 1888.57 38.952C1887.72 39 1886.86 39.04 1885.98 39.072C1885.12 39.104 1884.29 39.12 1883.51 39.12ZM1899.7 39L1899.7 21.24H1906.68C1908.44 21.24 1909.72 21.648 1910.52 22.464C1911.34 23.264 1911.74 24.408 1911.74 25.896C1911.74 26.6 1911.64 27.224 1911.43 27.768C1911.24 28.296 1910.96 28.736 1910.59 29.088C1910.22 29.424 1909.78 29.656 1909.27 29.784C1909.66 29.88 1910.02 30.032 1910.38 30.24C1910.74 30.448 1911.07 30.728 1911.36 31.08C1911.66 31.432 1911.9 31.864 1912.06 32.376C1912.23 32.872 1912.32 33.448 1912.32 34.104C1912.32 35.304 1912.11 36.264 1911.7 36.984C1911.3 37.704 1910.7 38.224 1909.9 38.544C1909.11 38.848 1908.14 39 1906.99 39H1899.7ZM1903.25 35.808H1906.9C1907.31 35.808 1907.67 35.728 1907.98 35.568C1908.28 35.408 1908.51 35.16 1908.67 34.824C1908.85 34.488 1908.94 34.04 1908.94 33.48C1908.94 33.016 1908.85 32.624 1908.67 32.304C1908.5 31.984 1908.26 31.736 1907.95 31.56C1907.65 31.384 1907.3 31.296 1906.9 31.296H1903.25L1903.25 35.808ZM1903.25 28.56H1906.7C1907.22 28.56 1907.62 28.376 1907.9 28.008C1908.21 27.624 1908.36 27.128 1908.36 26.52C1908.38 25.736 1908.22 25.192 1907.88 24.888C1907.54 24.584 1907.14 24.432 1906.66 24.432H1903.25L1903.25 28.56ZM1921.44 39.12C1920.46 39.12 1919.55 39.04 1918.7 38.88C1917.85 38.704 1917.11 38.408 1916.47 37.992C1915.85 37.56 1915.36 36.968 1915.01 36.216C1914.67 35.448 1914.5 34.472 1914.5 33.288L1914.5 21.24H1918.05L1918.05 33.264C1918.05 33.92 1918.18 34.44 1918.44 34.824C1918.71 35.208 1919.09 35.488 1919.59 35.664C1920.1 35.84 1920.72 35.928 1921.44 35.928C1922.14 35.928 1922.74 35.84 1923.24 35.664C1923.75 35.488 1924.13 35.208 1924.39 34.824C1924.66 34.44 1924.8 33.92 1924.8 33.264L1924.8 21.24H1928.37L1928.37 33.288C1928.37 34.472 1928.2 35.448 1927.85 36.216C1927.49 36.968 1927.01 37.56 1926.38 37.992C1925.76 38.408 1925.02 38.704 1924.17 38.88C1923.34 39.04 1922.43 39.12 1921.44 39.12ZM1935.42 39L1935.42 33.624L1930.07 21.24H1933.76L1937.27 30L1940.75 21.24H1944.3L1938.97 33.624L1938.97 39H1935.42ZM1956.17 39L1956.17 24.432H1951.3L1951.3 21.24H1964.62L1964.62 24.432H1959.73L1959.73 39H1956.17ZM1966.54 39L1966.54 21.24H1973.88C1974.59 21.24 1975.24 21.328 1975.85 21.504C1976.46 21.664 1977 21.952 1977.46 22.368C1977.92 22.784 1978.28 23.36 1978.54 24.096C1978.81 24.832 1978.95 25.776 1978.95 26.928C1978.95 27.744 1978.87 28.44 1978.71 29.016C1978.55 29.592 1978.33 30.064 1978.06 30.432C1977.8 30.8 1977.51 31.096 1977.17 31.32C1976.84 31.544 1976.49 31.728 1976.14 31.872L1979.45 39H1975.83L1972.97 32.424C1972.78 32.424 1972.56 32.424 1972.3 32.424C1972.06 32.408 1971.81 32.4 1971.56 32.4C1971.3 32.4 1971.04 32.4 1970.79 32.4C1970.53 32.4 1970.3 32.392 1970.09 32.376L1970.09 39H1966.54ZM1970.09 29.568H1973.26C1973.58 29.568 1973.87 29.528 1974.12 29.448C1974.38 29.368 1974.6 29.232 1974.8 29.04C1974.99 28.832 1975.13 28.56 1975.23 28.224C1975.34 27.888 1975.4 27.456 1975.4 26.928C1975.4 26.432 1975.34 26.024 1975.23 25.704C1975.13 25.368 1974.99 25.112 1974.8 24.936C1974.6 24.744 1974.38 24.616 1974.12 24.552C1973.87 24.472 1973.58 24.432 1973.26 24.432H1970.09L1970.09 29.568ZM1980.46 39L1986.03 21.24H1990.51L1996.08 39H1992.39L1991.26 35.28H1985.21L1984.11 39H1980.46ZM1986.05 32.088H1990.42L1988.23 24.288L1986.05 32.088ZM1997.55 39L1997.55 25.296C1997.55 24.512 1997.67 23.856 1997.91 23.328C1998.15 22.8 1998.47 22.384 1998.87 22.08C1999.27 21.776 1999.71 21.56 2000.19 21.432C2000.67 21.304 2001.14 21.24 2001.6 21.24C2002.18 21.24 2002.89 21.248 2003.74 21.264C2004.6 21.264 2005.51 21.288 2006.47 21.336C2007.45 21.384 2008.39 21.456 2009.28 21.552L2009.28 24.528H2002.59C2002.09 24.528 2001.72 24.664 2001.46 24.936C2001.22 25.192 2001.1 25.536 2001.1 25.968L2001.1 28.992L2008.13 29.184L2008.13 31.992L2001.1 32.184L2001.1 39H1997.55ZM2011.31 39L2011.3 25.296C2011.3 24.512 2011.42 23.856 2011.66 23.328C2011.9 22.8 2012.22 22.384 2012.62 22.08C2013.02 21.776 2013.46 21.56 2013.94 21.432C2014.42 21.304 2014.9 21.24 2015.36 21.24C2015.94 21.24 2016.65 21.248 2017.5 21.264C2018.36 21.264 2019.27 21.288 2020.23 21.336C2021.21 21.384 2022.14 21.456 2023.04 21.552L2023.04 24.528H2016.34C2015.85 24.528 2015.47 24.664 2015.22 24.936C2014.98 25.192 2014.86 25.536 2014.86 25.968L2014.86 28.992L2021.89 29.184L2021.89 31.992L2014.86 32.184L2014.86 39H2011.31ZM2025.3 39L2025.3 21.24H2028.85L2028.85 39H2025.3ZM2037.91 39.144C2036.87 39.144 2035.95 39.024 2035.15 38.784C2034.36 38.544 2033.69 38.104 2033.13 37.464C2032.59 36.824 2032.17 35.912 2031.88 34.728C2031.61 33.528 2031.47 31.976 2031.47 30.072C2031.47 28.232 2031.62 26.728 2031.91 25.56C2032.21 24.376 2032.64 23.464 2033.2 22.824C2033.76 22.168 2034.44 21.712 2035.24 21.456C2036.04 21.2 2036.95 21.072 2037.95 21.072C2038.75 21.072 2039.5 21.12 2040.19 21.216C2040.89 21.296 2041.52 21.4 2042.08 21.528C2042.64 21.64 2043.11 21.768 2043.5 21.912L2043.5 24.672C2043.21 24.608 2042.82 24.544 2042.32 24.48C2041.84 24.416 2041.29 24.368 2040.67 24.336C2040.04 24.288 2039.39 24.264 2038.7 24.264C2038.03 24.264 2037.45 24.344 2036.97 24.504C2036.51 24.648 2036.13 24.928 2035.84 25.344C2035.57 25.744 2035.36 26.328 2035.22 27.096C2035.09 27.864 2035.03 28.864 2035.03 30.096C2035.03 31.28 2035.08 32.256 2035.19 33.024C2035.32 33.792 2035.52 34.392 2035.79 34.824C2036.07 35.24 2036.43 35.536 2036.9 35.712C2037.38 35.872 2037.98 35.952 2038.7 35.952C2039.91 35.952 2040.9 35.928 2041.65 35.88C2042.42 35.832 2043.03 35.776 2043.5 35.712L2043.5 38.448C2043.07 38.592 2042.57 38.72 2042.01 38.832C2041.45 38.928 2040.83 39 2040.16 39.048C2039.49 39.112 2038.74 39.144 2037.91 39.144Z" fill="white"/>
</svg>
